<?xml version="1.0" encoding="UTF-8" standalone="no"?>
<!-- Created with Inkscape (http://www.inkscape.org/) -->

<svg
   xmlns:dc="http://purl.org/dc/elements/1.1/"
   xmlns:cc="http://creativecommons.org/ns#"
   xmlns:rdf="http://www.w3.org/1999/02/22-rdf-syntax-ns#"
   xmlns:svg="http://www.w3.org/2000/svg"
   xmlns="http://www.w3.org/2000/svg"
   xmlns:sodipodi="http://sodipodi.sourceforge.net/DTD/sodipodi-0.dtd"
   xmlns:inkscape="http://www.inkscape.org/namespaces/inkscape"
   width="64px"
   height="64px"
   id="svg4060"
   version="1.1"
   inkscape:version="0.48.2 r9819"
   sodipodi:docname="Collection telephone.svg">
  <defs
     id="defs4062">
    <clipPath
       id="clip0-1">
      <rect
         y="0"
         x="0"
         width="173"
         height="479"
         id="rect7-7" />
    </clipPath>
  </defs>
  <sodipodi:namedview
     id="base"
     pagecolor="#ffffff"
     bordercolor="#666666"
     borderopacity="1.0"
     inkscape:pageopacity="0.0"
     inkscape:pageshadow="2"
     inkscape:zoom="3.8890873"
     inkscape:cx="-11.031274"
     inkscape:cy="37.924407"
     inkscape:current-layer="layer1"
     showgrid="true"
     inkscape:document-units="px"
     inkscape:grid-bbox="true"
     inkscape:window-width="1303"
     inkscape:window-height="746"
     inkscape:window-x="55"
     inkscape:window-y="-8"
     inkscape:window-maximized="1" />
  <metadata
     id="metadata4065">
    <rdf:RDF>
      <cc:Work
         rdf:about="">
        <dc:format>image/svg+xml</dc:format>
        <dc:type
           rdf:resource="http://purl.org/dc/dcmitype/StillImage" />
        <dc:title />
      </cc:Work>
    </rdf:RDF>
  </metadata>
  <g
     id="layer1"
     inkscape:label="Layer 1"
     inkscape:groupmode="layer">
    <rect
       style="fill:#ffffff;fill-opacity:1;stroke:#000000;stroke-width:3.50000000000000000;stroke-miterlimit:4;stroke-opacity:1;stroke-dasharray:none"
       id="rect4068"
       width="56.897232"
       height="56.897236"
       x="3.5513825"
       y="3.5513816"
       rx="4.4450965"
       ry="4.4199829" />
    <g
       id="g9125"
       transform="matrix(0.50793869,-0.47440113,0.47485026,0.50745826,25.720243,6.4925762)">
      <path
         inkscape:connector-curvature="0"
         style="fill:none;stroke:#000000;stroke-width:0.01734104;stroke-linecap:butt;stroke-linejoin:miter;stroke-miterlimit:10"
         d="m -25.8703,-6.4865048 c 1.338625,-0.8355512 2.813896,-1.4835619 4.379822,-1.7348396 0.05542,6.8717389 3.46e-4,13.7457218 0.02747,20.6181464 0.0595,1.056358 0.04608,2.115644 0.02345,3.173105 -1.059725,-0.02573 -2.114477,0.482371 -2.727925,1.350698 -0.983202,1.327888 -1.31864,2.992827 -1.597658,4.587374 -0.59268,3.86061 -0.727009,7.776031 -0.68961,11.676582 0.04976,4.079327 0.403695,8.15596 1.029884,12.187195 0.293366,1.55944 0.56347,3.208292 1.501369,4.530827 0.555644,0.809847 1.526111,1.233562 2.494223,1.22903 0.0094,7.731441 0.0035,15.462966 0.0029,23.194507 -1.621103,-0.08612 -3.148134,-0.757197 -4.51358,-1.597986 -3.502475,-2.193033 -6.102525,-5.568487 -8.033349,-9.172088 -3.320474,-6.293529 -4.807799,-13.377617 -5.511,-20.407783 -0.366278,-3.849672 -0.498725,-7.720427 -0.436389,-11.58562 0.154374,-7.896266 0.986734,-15.883745 3.597133,-23.3803522 1.146354,-3.2443192 2.651552,-6.3858878 4.695351,-9.16491015 1.57346,-2.15291795 3.489122,-4.08557755 5.757878,-5.50388545 z m 0,0"
         id="path14-4" />
      <path
         inkscape:connector-curvature="0"
         style="fill:#000000;fill-rule:nonzero;stroke:none"
         d="m -25.8703,-6.4865048 c 1.338625,-0.8355512 2.813896,-1.4835619 4.379822,-1.7348396 0.05542,6.8717389 3.46e-4,13.7457218 0.02747,20.6181464 0.0595,1.056358 0.04608,2.115644 0.02345,3.173105 -1.059725,-0.02573 -2.114477,0.482371 -2.727925,1.350698 -0.983202,1.327888 -1.31864,2.992827 -1.597658,4.587374 -0.59268,3.86061 -0.727009,7.776031 -0.68961,11.676582 0.04976,4.079327 0.403695,8.15596 1.029884,12.187195 0.293366,1.55944 0.56347,3.208292 1.501369,4.530827 0.555644,0.809847 1.526111,1.233562 2.494223,1.22903 0.0094,7.731441 0.0035,15.462966 0.0029,23.194507 -1.621103,-0.08612 -3.148134,-0.757197 -4.51358,-1.597986 -3.502475,-2.193033 -6.102525,-5.568487 -8.033349,-9.172088 -3.320474,-6.293529 -4.807799,-13.377617 -5.511,-20.407783 -0.366278,-3.849672 -0.498725,-7.720427 -0.436389,-11.58562 0.154374,-7.896266 0.986734,-15.883745 3.597133,-23.3803522 1.146354,-3.2443192 2.651552,-6.3858878 4.695351,-9.16491015 1.57346,-2.15291795 3.489122,-4.08557755 5.757878,-5.50388545 z m 0,0"
         id="path16-8" />
      <path
         inkscape:connector-curvature="0"
         style="fill:none;stroke:#000000;stroke-width:0.01734104;stroke-linecap:butt;stroke-linejoin:miter;stroke-miterlimit:10"
         d="m -19.689892,-8.1848901 c 2.2516,0.00501 4.503613,-0.00893 6.75503,0.00528 1.119099,0.020906 2.105532,0.8955894 2.353531,1.9716516 0.02037,0.750325 0.06109,2.2509721 0.08145,3.0012944 l 0,14.3771331 c -0.149459,0.952951 0.161789,1.990939 -0.277347,2.887557 -0.383619,0.895802 -1.32604,1.513467 -2.300483,1.511041 -2.203948,0.008 -4.408167,-5.2e-4 -6.612172,0.0027 -0.0012,-7.9189118 -0.0012,-15.83778115 -1e-5,-23.7566824 z m 0,0"
         id="path18-8" />
      <path
         inkscape:connector-curvature="0"
         style="fill:#000000;fill-rule:nonzero;stroke:none"
         d="m -19.689892,-8.1848901 c 2.2516,0.00501 4.503613,-0.00893 6.75503,0.00528 1.119099,0.020906 2.105532,0.8955894 2.353531,1.9716516 0.02037,0.750325 0.06109,2.2509721 0.08145,3.0012944 l 0,14.3771331 c -0.149459,0.952951 0.161789,1.990939 -0.277347,2.887557 -0.383619,0.895802 -1.32604,1.513467 -2.300483,1.511041 -2.203948,0.008 -4.408167,-5.2e-4 -6.612172,0.0027 -0.0012,-7.9189118 -0.0012,-15.83778115 -1e-5,-23.7566824 z m 0,0"
         id="path20-2" />
      <path
         inkscape:connector-curvature="0"
         style="fill:none;stroke:#000000;stroke-width:0.01734104;stroke-linecap:butt;stroke-linejoin:miter;stroke-miterlimit:10"
         d="m -19.689868,51.121472 c 2.247288,0.0045 4.494952,-0.0082 6.742077,0.0047 1.126323,0.01504 2.121856,0.895216 2.367874,1.979074 0.02001,0.738198 0.06003,2.214595 0.08004,2.952789 l 0,13.888489 c -0.14614,1.04879 0.198226,2.240603 -0.421092,3.182629 -0.473718,0.812775 -1.417906,1.246309 -2.340663,1.224085 -2.142645,0.01229 -4.285558,1.73e-4 -6.428257,0.0047 -0.0012,-7.745534 -0.0012,-15.490991 2.4e-5,-23.236451 z m 0,0"
         id="path22-4" />
      <path
         inkscape:connector-curvature="0"
         style="fill:#000000;fill-rule:nonzero;stroke:none"
         d="m -19.689868,51.121472 c 2.247288,0.0045 4.494952,-0.0082 6.742077,0.0047 1.126323,0.01504 2.121856,0.895216 2.367874,1.979074 0.02001,0.738198 0.06003,2.214595 0.08004,2.952789 l 0,13.888489 c -0.14614,1.04879 0.198226,2.240603 -0.421092,3.182629 -0.473718,0.812775 -1.417906,1.246309 -2.340663,1.224085 -2.142645,0.01229 -4.285558,1.73e-4 -6.428257,0.0047 -0.0012,-7.745534 -0.0012,-15.490991 2.4e-5,-23.236451 z m 0,0"
         id="path24-5" />
    </g>
  </g>
</svg>
