<?xml version="1.0" encoding="UTF-8" standalone="no"?>
<!-- Created with Inkscape (http://www.inkscape.org/) -->

<svg
   xmlns:dc="http://purl.org/dc/elements/1.1/"
   xmlns:cc="http://creativecommons.org/ns#"
   xmlns:rdf="http://www.w3.org/1999/02/22-rdf-syntax-ns#"
   xmlns:svg="http://www.w3.org/2000/svg"
   xmlns="http://www.w3.org/2000/svg"
   xmlns:sodipodi="http://sodipodi.sourceforge.net/DTD/sodipodi-0.dtd"
   xmlns:inkscape="http://www.inkscape.org/namespaces/inkscape"
   width="64px"
   height="64px"
   id="svg4060"
   version="1.1"
   inkscape:version="0.48.2 r9819"
   sodipodi:docname="Cookies tracking.svg">
  <defs
     id="defs4062" />
  <sodipodi:namedview
     id="base"
     pagecolor="#ffffff"
     bordercolor="#666666"
     borderopacity="1.0"
     inkscape:pageopacity="0.0"
     inkscape:pageshadow="2"
     inkscape:zoom="9.9464285"
     inkscape:cx="16.315979"
     inkscape:cy="32"
     inkscape:current-layer="layer1"
     showgrid="true"
     inkscape:document-units="px"
     inkscape:grid-bbox="true"
     inkscape:window-width="1303"
     inkscape:window-height="746"
     inkscape:window-x="55"
     inkscape:window-y="-8"
     inkscape:window-maximized="1" />
  <metadata
     id="metadata4065">
    <rdf:RDF>
      <cc:Work
         rdf:about="">
        <dc:format>image/svg+xml</dc:format>
        <dc:type
           rdf:resource="http://purl.org/dc/dcmitype/StillImage" />
        <dc:title></dc:title>
      </cc:Work>
    </rdf:RDF>
  </metadata>
  <g
     id="layer1"
     inkscape:label="Layer 1"
     inkscape:groupmode="layer">
    <path
       sodipodi:type="star"
       style="fill:#ffffff;fill-opacity:1;stroke:#000002;stroke-width:3.99866914000000010;stroke-miterlimit:4;stroke-opacity:1;stroke-dasharray:none;stroke-linejoin:round;stroke-linecap:round"
       id="path4588"
       sodipodi:sides="3"
       sodipodi:cx="0"
       sodipodi:cy="-0.18181819"
       sodipodi:r1="38.542881"
       sodipodi:r2="19.271441"
       sodipodi:arg1="0.52909312"
       sodipodi:arg2="1.5762907"
       inkscape:flatsided="true"
       inkscape:rounded="0"
       inkscape:randomized="0"
       d="M 33.272727,19.272727 -33.484494,18.905936 0.2117668,-38.724117 z"
       inkscape:transform-center-x="0.089614304"
       inkscape:transform-center-y="-8.6393243"
       transform="matrix(0.8463504,0,0,0.90522167,32.089615,40.80391)" />
    <path
       sodipodi:type="star"
       style="fill:#000000;fill-opacity:1;stroke:#000002;stroke-width:3;stroke-linecap:round;stroke-linejoin:miter;stroke-miterlimit:4;stroke-opacity:1;stroke-dasharray:none"
       id="path3025"
       sodipodi:sides="28"
       sodipodi:cx="20.152542"
       sodipodi:cy="22.103924"
       sodipodi:r1="50.67852"
       sodipodi:r2="50.359867"
       sodipodi:arg1="0.86935873"
       sodipodi:arg2="0.98155847"
       inkscape:flatsided="true"
       inkscape:rounded="-10"
       inkscape:randomized="0"
       d="M 52.85623,60.818019 C 139.5483,-12.415007 -57.392815,119.23075 43.421584,67.124631 144.23598,15.01851 -77.061344,99.540115 32.82013,71.173717 142.7016,42.807319 -91.855162,75.966503 21.583471,72.762239 135.0221,69.557974 -101.03245,49.691997 10.275059,71.810541 121.58257,93.929084 -104.13301,22.03411 -0.53805424,68.366345 103.0569,114.69858 -101.00138,-5.6202771 -10.313655,62.602359 80.374066,130.82499 -91.79458,-31.884457 -18.561553,54.807612 54.671473,141.49968 -76.974287,-55.441433 -24.868165,45.372965 27.237956,146.18736 -57.283649,-75.109962 -28.917251,34.771512 -0.5508534,144.65299 -33.710037,-89.90378 -30.505773,23.534853 -27.301508,136.97349 -7.4355311,-99.081065 -29.554075,12.226441 -51.672618,123.53395 20.222356,-102.18163 -26.109879,1.4133274 -72.442115,105.00828 47.876743,-99.049995 -20.345893,-8.3622733 -88.568529,82.325448 74.140923,-89.843198 -12.551146,-16.610172 -99.243215,56.622854 97.697899,-75.022905 -3.1164996,-22.916784 -103.9309,29.189337 117.36643,-55.332267 7.4849538,-26.96587 -102.39652,1.4005283 132.16025,-31.758656 18.721613,-28.554391 c -113.438633,3.204265 122.615917,23.0702416 11.308412,0.951698 -111.307506,-22.118543 114.408065,49.776431 10.813113,3.444195 -103.594955,-46.332235 100.463322,73.986623 9.775601,5.763987 -90.687721,-68.222636 81.480921,94.486815 8.247899,7.794747 C -14.366388,-97.291833 117.27937,99.649281 65.17325,-1.1651179 13.067128,-101.97952 97.588733,119.31781 69.222335,9.4363355 40.855938,-100.44514 74.015122,134.11163 70.810857,20.672995 67.606592,-92.765639 47.740615,143.28891 69.859159,31.981406 91.977702,-79.3261 20.082728,146.38948 66.414964,42.79452 112.7472,-60.800435 -7.5716588,143.25784 60.650977,52.570121 128.87361,-38.1176 -33.835838,134.05105 52.85623,60.818019 z"
       transform="matrix(0.2027179,0,0,0.2027179,27.914719,37.519139)" />
    <path
       sodipodi:type="arc"
       style="fill:#ffffff;fill-opacity:1;stroke:none"
       id="path3027"
       sodipodi:cx="9.7227182"
       sodipodi:cy="14.23736"
       sodipodi:rx="1.2374369"
       sodipodi:ry="1.502602"
       d="m 10.960155,14.23736 a 1.2374369,1.502602 0 1 1 -2.4748737,0 1.2374369,1.502602 0 1 1 2.4748737,0 z"
       transform="matrix(0.85565865,0,0,0.70466009,19.121824,23.424078)" />
    <path
       sodipodi:type="arc"
       style="fill:#ffffff;fill-opacity:1;stroke:none"
       id="path3027-1"
       sodipodi:cx="9.7227182"
       sodipodi:cy="14.23736"
       sodipodi:rx="1.2374369"
       sodipodi:ry="1.502602"
       d="m 10.960155,14.23736 a 1.2374369,1.502602 0 1 1 -2.4748737,0 1.2374369,1.502602 0 1 1 2.4748737,0 z"
       transform="matrix(0.85565865,0,0,0.70466009,29.960256,26.686186)" />
    <path
       sodipodi:type="arc"
       style="fill:#ffffff;fill-opacity:1;stroke:none"
       id="path3027-7"
       sodipodi:cx="9.7227182"
       sodipodi:cy="14.23736"
       sodipodi:rx="1.2374369"
       sodipodi:ry="1.502602"
       d="m 10.960155,14.23736 a 1.2374369,1.502602 0 1 1 -2.4748737,0 1.2374369,1.502602 0 1 1 2.4748737,0 z"
       transform="matrix(0.85565865,0,0,0.70466009,15.485364,32.176663)" />
    <path
       sodipodi:type="arc"
       style="fill:#ffffff;fill-opacity:1;stroke:none"
       id="path3027-4"
       sodipodi:cx="9.7227182"
       sodipodi:cy="14.23736"
       sodipodi:rx="1.2374369"
       sodipodi:ry="1.502602"
       d="m 10.960155,14.23736 a 1.2374369,1.502602 0 1 1 -2.4748737,0 1.2374369,1.502602 0 1 1 2.4748737,0 z"
       transform="matrix(0.85565865,0,0,0.70466009,27.339801,38.415841)" />
    <path
       sodipodi:type="arc"
       style="fill:#ffffff;fill-opacity:1;stroke:none"
       id="path3027-0"
       sodipodi:cx="9.7227182"
       sodipodi:cy="14.23736"
       sodipodi:rx="1.2374369"
       sodipodi:ry="1.502602"
       d="m 10.960155,14.23736 a 1.2374369,1.502602 0 1 1 -2.4748737,0 1.2374369,1.502602 0 1 1 2.4748737,0 z"
       transform="matrix(0.85565865,0,0,0.70466009,25.21848,31.427962)" />
    <path
       sodipodi:type="arc"
       style="fill:#ffffff;fill-opacity:1;stroke:none"
       id="path3027-9"
       sodipodi:cx="9.7227182"
       sodipodi:cy="14.23736"
       sodipodi:rx="1.2374369"
       sodipodi:ry="1.502602"
       d="m 10.960155,14.23736 a 1.2374369,1.502602 0 1 1 -2.4748737,0 1.2374369,1.502602 0 1 1 2.4748737,0 z"
       transform="matrix(0.85565865,0,0,0.70466009,19.478438,37.417573)" />
    <path
       sodipodi:type="arc"
       style="fill:#ffffff;fill-opacity:1;stroke:none"
       id="path3027-48"
       sodipodi:cx="9.7227182"
       sodipodi:cy="14.23736"
       sodipodi:rx="1.2374369"
       sodipodi:ry="1.502602"
       d="m 10.960155,14.23736 a 1.2374369,1.502602 0 1 1 -2.4748737,0 1.2374369,1.502602 0 1 1 2.4748737,0 z"
       transform="matrix(0.85565865,0,0,0.70466009,26.836061,28.037291)" />
    <path
       sodipodi:type="arc"
       style="fill:#ffffff;fill-opacity:1;stroke:none"
       id="path3027-8"
       sodipodi:cx="9.7227182"
       sodipodi:cy="14.23736"
       sodipodi:rx="1.2374369"
       sodipodi:ry="1.502602"
       d="m 10.960155,14.23736 a 1.2374369,1.502602 0 1 1 -2.4748737,0 1.2374369,1.502602 0 1 1 2.4748737,0 z"
       transform="matrix(0.85565865,0,0,0.70466009,30.266383,32.876755)" />
    <path
       sodipodi:type="arc"
       style="fill:#ffffff;fill-opacity:1;stroke:none"
       id="path3027-2"
       sodipodi:cx="9.7227182"
       sodipodi:cy="14.23736"
       sodipodi:rx="1.2374369"
       sodipodi:ry="1.502602"
       d="m 10.960155,14.23736 a 1.2374369,1.502602 0 1 1 -2.4748737,0 1.2374369,1.502602 0 1 1 2.4748737,0 z"
       transform="matrix(0.85565865,0,0,0.70466009,20.674452,32.930994)" />
    <path
       sodipodi:type="arc"
       style="fill:#ffffff;fill-opacity:1;stroke:none"
       id="path3027-45"
       sodipodi:cx="9.7227182"
       sodipodi:cy="14.23736"
       sodipodi:rx="1.2374369"
       sodipodi:ry="1.502602"
       d="m 10.960155,14.23736 a 1.2374369,1.502602 0 1 1 -2.4748737,0 1.2374369,1.502602 0 1 1 2.4748737,0 z"
       transform="matrix(0.85565865,0,0,0.70466009,23.093783,40.210538)" />
    <path
       sodipodi:type="star"
       style="fill:#ffffff;fill-opacity:1;stroke:none"
       id="path4528"
       sodipodi:sides="28"
       sodipodi:cx="25.737883"
       sodipodi:cy="25.996408"
       sodipodi:r1="6.3275452"
       sodipodi:r2="6.2877588"
       sodipodi:arg1="0.77416268"
       sodipodi:arg2="0.88636242"
       inkscape:flatsided="true"
       inkscape:rounded="-0.61"
       inkscape:randomized="0"
       d="m 30.26212,30.420107 c 0.604262,-0.617996 -1.824427,1.363866 -1.097798,0.895826 0.726629,-0.46804 -2.082173,0.923698 -1.269613,0.629083 0.812559,-0.294615 -2.235512,0.437212 -1.377766,0.330795 0.857745,-0.106417 -2.276751,-0.0712 -1.416831,0.01592 0.85992,0.08712 -2.203826,-0.576037 -1.384851,-0.299754 0.818974,0.276283 -2.02039,-1.051992 -1.283428,-0.600397 0.736962,0.451595 -1.735644,-1.475196 -1.117649,-0.870934 0.617996,0.604263 -1.363866,-1.824426 -0.895826,-1.097797 0.46804,0.726629 -0.923698,-2.082174 -0.629083,-1.269614 0.294615,0.81256 -0.437212,-2.235511 -0.330795,-1.377765 0.106417,0.857745 0.0712,-2.276752 -0.01592,-1.416832 -0.08712,0.85992 0.576037,-2.203825 0.299754,-1.38485 -0.276283,0.818974 1.051993,-2.02039 0.600397,-1.283428 -0.451595,0.736962 1.475196,-1.735645 0.870934,-1.117649 -0.604263,0.617996 1.824426,-1.363866 1.097797,-0.895826 -0.726629,0.46804 2.082174,-0.923698 1.269614,-0.629083 -0.81256,0.294615 2.235511,-0.437212 1.377766,-0.330795 -0.857746,0.106417 2.276751,0.0712 1.416831,-0.01592 -0.85992,-0.08712 2.203825,0.576037 1.38485,0.299754 -0.818974,-0.276283 2.02039,1.051992 1.283428,0.600397 -0.736962,-0.451595 1.735645,1.475196 1.117649,0.870933 -0.617996,-0.604262 1.363866,1.824427 0.895826,1.097798 -0.46804,-0.726629 0.923698,2.082173 0.629083,1.269614 -0.294615,-0.81256 0.437212,2.235511 0.330795,1.377765 -0.106417,-0.857745 -0.0712,2.276751 0.01592,1.416832 0.08712,-0.85992 -0.576037,2.203825 -0.299754,1.38485 0.276283,-0.818974 -1.051992,2.02039 -0.600397,1.283428 0.451595,-0.736962 -1.475196,1.735645 -0.870933,1.117649 z"
       transform="translate(0.9048474,5.8312388)" />
    <rect
       style="fill:#000000;fill-opacity:1;stroke:#ffffff;stroke-width:3.24806118000000010;stroke-linecap:round;stroke-linejoin:miter;stroke-miterlimit:4;stroke-opacity:0;stroke-dasharray:none"
       id="rect5038"
       width="3.4971845"
       height="15.27344"
       x="29.53656"
       y="4.5729375"
       transform="matrix(0.82484943,0.56535247,-0.47901649,0.8778059,0,0)" />
    <path
       sodipodi:type="star"
       style="fill:#000000;fill-opacity:1;stroke:none"
       id="path5040"
       sodipodi:sides="6"
       sodipodi:cx="24.229803"
       sodipodi:cy="30.520645"
       sodipodi:r1="1.310863"
       sodipodi:r2="1.3026205"
       sodipodi:arg1="1.0040671"
       sodipodi:arg2="1.5276659"
       inkscape:flatsided="true"
       inkscape:rounded="0"
       inkscape:randomized="0"
       d="m 24.933573,31.62657 -1.309644,0.05652 -0.70377,-1.105924 0.605874,-1.162445 1.309644,-0.05652 0.70377,1.105925 z"
       transform="matrix(0.38307633,0,0,0.38307633,14.54487,19.231977)" />
    <path
       sodipodi:type="star"
       style="fill:#000000;fill-opacity:1;stroke:none"
       id="path5040-5"
       sodipodi:sides="6"
       sodipodi:cx="24.229803"
       sodipodi:cy="30.520645"
       sodipodi:r1="1.310863"
       sodipodi:r2="1.3026205"
       sodipodi:arg1="1.0040671"
       sodipodi:arg2="1.5276659"
       inkscape:flatsided="true"
       inkscape:rounded="0"
       inkscape:randomized="0"
       d="m 24.933573,31.62657 -1.309644,0.05652 -0.70377,-1.105924 0.605874,-1.162445 1.309644,-0.05652 0.70377,1.105925 z"
       transform="matrix(0.38307633,0,0,0.38307633,19.371637,23.453684)" />
    <path
       sodipodi:type="star"
       style="fill:#000000;fill-opacity:1;stroke:none"
       id="path5040-1"
       sodipodi:sides="6"
       sodipodi:cx="24.229803"
       sodipodi:cy="30.520645"
       sodipodi:r1="1.310863"
       sodipodi:r2="1.3026205"
       sodipodi:arg1="1.0040671"
       sodipodi:arg2="1.5276659"
       inkscape:flatsided="true"
       inkscape:rounded="0"
       inkscape:randomized="0"
       d="m 24.933573,31.62657 -1.309644,0.05652 -0.70377,-1.105924 0.605874,-1.162445 1.309644,-0.05652 0.70377,1.105925 z"
       transform="matrix(0.38307633,0,0,0.38307633,21.28187,19.130526)" />
    <path
       sodipodi:type="star"
       style="fill:#000000;fill-opacity:1;stroke:none"
       id="path5040-7"
       sodipodi:sides="6"
       sodipodi:cx="24.229803"
       sodipodi:cy="30.520645"
       sodipodi:r1="1.310863"
       sodipodi:r2="1.3026205"
       sodipodi:arg1="1.0040671"
       sodipodi:arg2="1.5276659"
       inkscape:flatsided="true"
       inkscape:rounded="0"
       inkscape:randomized="0"
       d="m 24.933573,31.62657 -1.309644,0.05652 -0.70377,-1.105924 0.605874,-1.162445 1.309644,-0.05652 0.70377,1.105925 z"
       transform="matrix(0.38307633,0,0,0.38307633,15.852786,22.548838)" />
    <path
       sodipodi:type="star"
       style="fill:#000000;fill-opacity:1;stroke:none"
       id="path5040-11"
       sodipodi:sides="6"
       sodipodi:cx="24.229803"
       sodipodi:cy="30.520645"
       sodipodi:r1="1.310863"
       sodipodi:r2="1.3026205"
       sodipodi:arg1="1.0040671"
       sodipodi:arg2="1.5276659"
       inkscape:flatsided="true"
       inkscape:rounded="0"
       inkscape:randomized="0"
       d="m 24.933573,31.62657 -1.309644,0.05652 -0.70377,-1.105924 0.605874,-1.162445 1.309644,-0.05652 0.70377,1.105925 z"
       transform="matrix(0.38307633,0,0,0.38307633,19.673253,20.638604)" />
    <path
       sodipodi:type="star"
       style="fill:#000000;fill-opacity:1;stroke:none"
       id="path5040-11-5"
       sodipodi:sides="6"
       sodipodi:cx="24.229803"
       sodipodi:cy="30.520645"
       sodipodi:r1="1.310863"
       sodipodi:r2="1.3026205"
       sodipodi:arg1="1.0040671"
       sodipodi:arg2="1.5276659"
       inkscape:flatsided="true"
       inkscape:rounded="0"
       inkscape:randomized="0"
       d="m 24.933573,31.62657 -1.309644,0.05652 -0.70377,-1.105924 0.605874,-1.162445 1.309644,-0.05652 0.70377,1.105925 z"
       transform="matrix(0.38307633,0,0,0.38307633,17.260326,19.432141)" />
    <path
       sodipodi:type="star"
       style="fill:#000000;fill-opacity:1;stroke:none"
       id="path5040-11-2"
       sodipodi:sides="6"
       sodipodi:cx="24.229803"
       sodipodi:cy="30.520645"
       sodipodi:r1="1.310863"
       sodipodi:r2="1.3026205"
       sodipodi:arg1="1.0040671"
       sodipodi:arg2="1.5276659"
       inkscape:flatsided="true"
       inkscape:rounded="0"
       inkscape:randomized="0"
       d="m 24.933573,31.62657 -1.309644,0.05652 -0.70377,-1.105924 0.605874,-1.162445 1.309644,-0.05652 0.70377,1.105925 z"
       transform="matrix(0.38307633,0,0,0.38307633,20.678638,16.013829)" />
    <path
       sodipodi:type="star"
       style="fill:#000000;fill-opacity:1;stroke:none"
       id="path5040-11-7"
       sodipodi:sides="6"
       sodipodi:cx="24.229803"
       sodipodi:cy="30.520645"
       sodipodi:r1="1.310863"
       sodipodi:r2="1.3026205"
       sodipodi:arg1="1.0040671"
       sodipodi:arg2="1.5276659"
       inkscape:flatsided="true"
       inkscape:rounded="0"
       inkscape:randomized="0"
       d="m 24.933573,31.62657 -1.309644,0.05652 -0.70377,-1.105924 0.605874,-1.162445 1.309644,-0.05652 0.70377,1.105925 z"
       transform="matrix(0.38307633,0,0,0.38307633,16.456017,15.310059)" />
    <path
       sodipodi:type="star"
       style="fill:#000000;fill-opacity:1;stroke:none"
       id="path5040-11-6"
       sodipodi:sides="6"
       sodipodi:cx="24.229803"
       sodipodi:cy="30.520645"
       sodipodi:r1="1.310863"
       sodipodi:r2="1.3026205"
       sodipodi:arg1="1.0040671"
       sodipodi:arg2="1.5276659"
       inkscape:flatsided="true"
       inkscape:rounded="0"
       inkscape:randomized="0"
       d="m 24.933573,31.62657 -1.309644,0.05652 -0.70377,-1.105924 0.605874,-1.162445 1.309644,-0.05652 0.70377,1.105925 z"
       transform="matrix(0.38307633,0,0,0.38307633,12.333935,22.34776)" />
    <path
       sodipodi:type="arc"
       style="fill:#ffffff;fill-opacity:1;stroke:none"
       id="path5120"
       sodipodi:cx="23.073608"
       sodipodi:cy="36.603233"
       sodipodi:rx="0.35188511"
       sodipodi:ry="0.35188511"
       d="m 23.425494,36.603233 a 0.35188511,0.35188511 0 1 1 -0.703771,0 0.35188511,0.35188511 0 1 1 0.703771,0 z"
       transform="matrix(4.1428571,0,0,3.8571428,-72.71813,-104.88228)" />
    <path
       sodipodi:type="arc"
       style="fill:#ffffff;fill-opacity:1;stroke:none"
       id="path5120-1"
       sodipodi:cx="23.073608"
       sodipodi:cy="36.603233"
       sodipodi:rx="0.35188511"
       sodipodi:ry="0.35188511"
       d="m 23.425494,36.603233 a 0.35188511,0.35188511 0 1 1 -0.703771,0 0.35188511,0.35188511 0 1 1 0.703771,0 z"
       transform="matrix(4.1428571,0,0,3.8571428,-70.65709,-103.92716)" />
    <path
       sodipodi:type="arc"
       style="fill:#ffffff;fill-opacity:1;stroke:none"
       id="path5120-4"
       sodipodi:cx="23.073608"
       sodipodi:cy="36.603233"
       sodipodi:rx="0.35188511"
       sodipodi:ry="0.35188511"
       d="m 23.425494,36.603233 a 0.35188511,0.35188511 0 1 1 -0.703771,0 0.35188511,0.35188511 0 1 1 0.703771,0 z"
       transform="matrix(4.1428571,0,0,3.8571428,-68.44524,-103.62555)" />
    <path
       sodipodi:type="arc"
       style="fill:#ffffff;fill-opacity:1;stroke:none"
       id="path5120-2"
       sodipodi:cx="23.073608"
       sodipodi:cy="36.603233"
       sodipodi:rx="0.35188511"
       sodipodi:ry="0.35188511"
       d="m 23.425494,36.603233 a 0.35188511,0.35188511 0 1 1 -0.703771,0 0.35188511,0.35188511 0 1 1 0.703771,0 z"
       transform="matrix(4.1428571,0,0,3.8571428,-66.33393,-103.72609)" />
    <path
       sodipodi:type="arc"
       style="fill:#ffffff;fill-opacity:1;stroke:none"
       id="path5120-3"
       sodipodi:cx="23.073608"
       sodipodi:cy="36.603233"
       sodipodi:rx="0.35188511"
       sodipodi:ry="0.35188511"
       d="m 23.425494,36.603233 a 0.35188511,0.35188511 0 1 1 -0.703771,0 0.35188511,0.35188511 0 1 1 0.703771,0 z"
       transform="matrix(4.1428571,0,0,3.8571428,-64.423697,-104.83202)" />
    <path
       sodipodi:type="arc"
       style="fill:#ffffff;fill-opacity:1;stroke:none"
       id="path5120-22"
       sodipodi:cx="23.073608"
       sodipodi:cy="36.603233"
       sodipodi:rx="0.35188511"
       sodipodi:ry="0.35188511"
       d="m 23.425494,36.603233 a 0.35188511,0.35188511 0 1 1 -0.703771,0 0.35188511,0.35188511 0 1 1 0.703771,0 z"
       transform="matrix(4.1428571,0,0,3.8571428,-63.016156,-106.44063)" />
    <path
       sodipodi:type="arc"
       style="fill:#ffffff;fill-opacity:1;stroke:none"
       id="path5120-16"
       sodipodi:cx="23.073608"
       sodipodi:cy="36.603233"
       sodipodi:rx="0.35188511"
       sodipodi:ry="0.35188511"
       d="m 23.425494,36.603233 a 0.35188511,0.35188511 0 1 1 -0.703771,0 0.35188511,0.35188511 0 1 1 0.703771,0 z"
       transform="matrix(4.1428571,0,0,3.8571428,-62.915617,-108.4514)" />
    <path
       sodipodi:type="arc"
       style="fill:#ffffff;fill-opacity:1;stroke:none"
       id="path5120-8"
       sodipodi:cx="23.073608"
       sodipodi:cy="36.603233"
       sodipodi:rx="0.35188511"
       sodipodi:ry="0.35188511"
       d="m 23.425494,36.603233 a 0.35188511,0.35188511 0 1 1 -0.703771,0 0.35188511,0.35188511 0 1 1 0.703771,0 z"
       transform="matrix(4.1428571,0,0,3.8571428,-62.513463,-110.26109)" />
  </g>
</svg>
