<?xml version="1.0" encoding="UTF-8" standalone="no"?>
<!-- Created with Inkscape (http://www.inkscape.org/) -->

<svg
   xmlns:dc="http://purl.org/dc/elements/1.1/"
   xmlns:cc="http://creativecommons.org/ns#"
   xmlns:rdf="http://www.w3.org/1999/02/22-rdf-syntax-ns#"
   xmlns:svg="http://www.w3.org/2000/svg"
   xmlns="http://www.w3.org/2000/svg"
   xmlns:sodipodi="http://sodipodi.sourceforge.net/DTD/sodipodi-0.dtd"
   xmlns:inkscape="http://www.inkscape.org/namespaces/inkscape"
   width="64px"
   height="64px"
   id="svg2993"
   version="1.1"
   inkscape:version="0.48.2 r9819"
   sodipodi:docname="Cookies none.svg">
  <defs
     id="defs2995" />
  <sodipodi:namedview
     id="base"
     pagecolor="#ffffff"
     bordercolor="#666666"
     borderopacity="1.0"
     inkscape:pageopacity="0.0"
     inkscape:pageshadow="2"
     inkscape:zoom="8.7588223"
     inkscape:cx="31.96875"
     inkscape:cy="35.021446"
     inkscape:current-layer="layer1"
     showgrid="false"
     inkscape:document-units="px"
     inkscape:grid-bbox="true"
     inkscape:snap-global="false"
     inkscape:window-width="1303"
     inkscape:window-height="746"
     inkscape:window-x="55"
     inkscape:window-y="-8"
     inkscape:window-maximized="1">
    <inkscape:grid
       type="xygrid"
       id="grid3023" />
  </sodipodi:namedview>
  <metadata
     id="metadata2998">
    <rdf:RDF>
      <cc:Work
         rdf:about="">
        <dc:format>image/svg+xml</dc:format>
        <dc:type
           rdf:resource="http://purl.org/dc/dcmitype/StillImage" />
        <dc:title></dc:title>
      </cc:Work>
    </rdf:RDF>
  </metadata>
  <g
     id="layer1"
     inkscape:label="Layer 1"
     inkscape:groupmode="layer">
    <path
       style="fill:#ffffff;fill-opacity:1;stroke:none"
       d="m 3.1730068,6.7158864 c 0,0 7.6038182,40.8483706 13.0856262,41.2020376 L 30.935757,60.649873 45.082376,51.454575 53.570359,37.484794 58.875328,19.62468 59.759498,6.1853894 44.198203,9.8988747 32.704076,6.7158864 20.325795,9.7220458 z"
       id="path5612"
       inkscape:connector-curvature="0" />
    <path
       style="fill:none;stroke:#000000;stroke-width:3.50000000000000000;stroke-linecap:butt;stroke-linejoin:miter;stroke-miterlimit:4;stroke-opacity:1;stroke-dasharray:none;fill-opacity:1"
       d="m 3.6899163,4.6391678 c 0,0 19.7250817,10.2560902 28.3012047,0.2229583"
       id="path3003"
       inkscape:connector-curvature="0" />
    <path
       style="fill:none;stroke:#000000;stroke-width:3.50000000000000000;stroke-linecap:butt;stroke-linejoin:miter;stroke-miterlimit:4;stroke-opacity:1;stroke-dasharray:none;fill-opacity:1"
       d="m 60.292326,4.6391678 c 0,0 -19.725081,10.2560902 -28.301205,0.2229583"
       id="path3003-1"
       inkscape:connector-curvature="0" />
    <path
       style="fill:none;stroke:#000000;stroke-width:3.50000000000000000;stroke-linecap:butt;stroke-linejoin:miter;stroke-miterlimit:4;stroke-opacity:1;stroke-dasharray:none;fill-opacity:1"
       d="m 3.6899163,4.8621261 c 0,0 -1.4407886,40.2440079 28.3012047,55.1822269"
       id="path3045"
       inkscape:connector-curvature="0" />
    <path
       style="fill:none;stroke:#000000;stroke-width:3.50000000000000000;stroke-linecap:butt;stroke-linejoin:miter;stroke-miterlimit:4;stroke-opacity:1;stroke-dasharray:none;fill-opacity:1"
       d="m 60.292326,4.8621261 c 0,0 1.440789,40.2440079 -28.301205,55.1822269"
       id="path3045-4"
       inkscape:connector-curvature="0" />
    <path
       sodipodi:type="star"
       style="fill:none;fill-rule:evenodd;stroke:#000000;stroke-width:5.31111193000000000;stroke-linecap:butt;stroke-linejoin:miter;stroke-miterlimit:4;stroke-opacity:1;stroke-dasharray:none;fill-opacity:1"
       id="path3196"
       sodipodi:sides="3"
       sodipodi:cx="29"
       sodipodi:cy="13"
       sodipodi:r1="1"
       sodipodi:r2="0.5"
       sodipodi:arg1="0"
       sodipodi:arg2="1.0471976"
       inkscape:flatsided="false"
       inkscape:rounded="0"
       inkscape:randomized="0"
       d="M 30,13 29.25,13.433013 28.5,13.866025 28.5,13 l 0,-0.866025 0.75,0.433012 z"
       transform="matrix(0,-0.4203016,1.033247,0,18.649148,17.196195)"
       inkscape:transform-center-y="-0.085686182" />
    <path
       sodipodi:type="star"
       style="stroke:#ffffff;stroke-width:2.68143319999999990;stroke-miterlimit:4;stroke-opacity:0;stroke-dasharray:none;fill:#000000;fill-opacity:1"
       id="path3978"
       sodipodi:sides="3"
       sodipodi:cx="30.405592"
       sodipodi:cy="23.076195"
       sodipodi:r1="1.9764235"
       sodipodi:r2="0.98821175"
       sodipodi:arg1="1.1071487"
       sodipodi:arg2="2.1543463"
       inkscape:flatsided="false"
       inkscape:rounded="0"
       inkscape:randomized="0"
       d="m 31.289475,24.843962 -1.428378,-0.943093 -1.428378,-0.943092 1.530931,-0.765466 1.530931,-0.765465 -0.102553,1.708558 z"
       inkscape:transform-center-x="0.54239576"
       inkscape:transform-center-y="0.059208966"
       transform="matrix(1.3893619,0,0,1.2262717,18.430129,-24.275137)" />
    <path
       sodipodi:type="star"
       style="stroke:#ffffff;stroke-width:2.58371449000000020;stroke-miterlimit:4;stroke-opacity:0;stroke-dasharray:none;fill:#000000;fill-opacity:1"
       id="path3978-0"
       sodipodi:sides="3"
       sodipodi:cx="30.405592"
       sodipodi:cy="23.076195"
       sodipodi:r1="1.9764235"
       sodipodi:r2="0.98821175"
       sodipodi:arg1="1.1071487"
       sodipodi:arg2="2.1543463"
       inkscape:flatsided="false"
       inkscape:rounded="0"
       inkscape:randomized="0"
       d="m 31.289475,24.843962 -1.428378,-0.943093 -1.428378,-0.943092 1.530931,-0.765466 1.530931,-0.765465 -0.102553,1.708558 z"
       inkscape:transform-center-x="-0.55036236"
       inkscape:transform-center-y="0.062848795"
       transform="matrix(-1.4097744,0,0,1.3016597,46.150254,-25.983486)" />
    <path
       sodipodi:type="star"
       style="stroke:#ffffff;stroke-width:3.51910590999999990;stroke-miterlimit:4;stroke-opacity:0;stroke-dasharray:none;fill:#000000;fill-opacity:1"
       id="path4004"
       sodipodi:sides="3"
       sodipodi:cx="22.45064"
       sodipodi:cy="24.843962"
       sodipodi:r1="2.8201284"
       sodipodi:r2="1.4100643"
       sodipodi:arg1="0.56192156"
       sodipodi:arg2="1.6091191"
       inkscape:flatsided="true"
       inkscape:rounded="0"
       inkscape:randomized="0"
       d="m 24.837125,26.346564 -4.881019,-0.187146 2.602582,-4.133514 z"
       inkscape:transform-center-x="-0.0073430433"
       inkscape:transform-center-y="0.33544018"
       transform="matrix(0.89286957,0.49782709,-1.4291532,0.31101961,47.457604,41.441108)" />
    <path
       sodipodi:type="star"
       style="fill:#000000;fill-opacity:1;stroke:#000000;stroke-width:3;stroke-linecap:round;stroke-linejoin:miter;stroke-miterlimit:4;stroke-opacity:1;stroke-dasharray:none"
       id="path3025"
       sodipodi:sides="28"
       sodipodi:cx="20.152542"
       sodipodi:cy="22.103924"
       sodipodi:r1="50.67852"
       sodipodi:r2="50.359867"
       sodipodi:arg1="0.86935873"
       sodipodi:arg2="0.98155847"
       inkscape:flatsided="true"
       inkscape:rounded="-10"
       inkscape:randomized="0"
       d="M 52.85623,60.818019 C 139.5483,-12.415007 -57.392815,119.23075 43.421584,67.124631 144.23598,15.01851 -77.061344,99.540115 32.82013,71.173717 142.7016,42.807319 -91.855162,75.966503 21.583471,72.762239 135.0221,69.557974 -101.03245,49.691997 10.275059,71.810541 121.58257,93.929084 -104.13301,22.03411 -0.53805424,68.366345 103.0569,114.69858 -101.00138,-5.6202771 -10.313655,62.602359 80.374066,130.82499 -91.79458,-31.884457 -18.561553,54.807612 54.671473,141.49968 -76.974287,-55.441433 -24.868165,45.372965 27.237956,146.18736 -57.283649,-75.109962 -28.917251,34.771512 -0.5508534,144.65299 -33.710037,-89.90378 -30.505773,23.534853 -27.301508,136.97349 -7.4355311,-99.081065 -29.554075,12.226441 -51.672618,123.53395 20.222356,-102.18163 -26.109879,1.4133274 -72.442115,105.00828 47.876743,-99.049995 -20.345893,-8.3622733 -88.568529,82.325448 74.140923,-89.843198 -12.551146,-16.610172 -99.243215,56.622854 97.697899,-75.022905 -3.1164996,-22.916784 -103.9309,29.189337 117.36643,-55.332267 7.4849538,-26.96587 -102.39652,1.4005283 132.16025,-31.758656 18.721613,-28.554391 c -113.438633,3.204265 122.615917,23.0702416 11.308412,0.951698 -111.307506,-22.118543 114.408065,49.776431 10.813113,3.444195 -103.594955,-46.332235 100.463322,73.986623 9.775601,5.763987 -90.687721,-68.222636 81.480921,94.486815 8.247899,7.794747 C -14.366388,-97.291833 117.27937,99.649281 65.17325,-1.1651179 13.067128,-101.97952 97.588733,119.31781 69.222335,9.4363355 40.855938,-100.44514 74.015122,134.11163 70.810857,20.672995 67.606592,-92.765639 47.740615,143.28891 69.859159,31.981406 91.977702,-79.3261 20.082728,146.38948 66.414964,42.79452 112.7472,-60.800435 -7.5716588,143.25784 60.650977,52.570121 128.87361,-38.1176 -33.835838,134.05105 52.85623,60.818019 z"
       transform="matrix(0.28718368,0,0,0.28718368,26.212519,25.652114)" />
    <path
       sodipodi:type="arc"
       style="fill:#ffffff;fill-opacity:1;stroke:none"
       id="path3027"
       sodipodi:cx="9.7227182"
       sodipodi:cy="14.23736"
       sodipodi:rx="1.2374369"
       sodipodi:ry="1.502602"
       d="m 10.960155,14.23736 a 1.2374369,1.502602 0 1 1 -2.4748737,0 1.2374369,1.502602 0 1 1 2.4748737,0 z"
       transform="matrix(1.212183,0,0,0.99826834,13.755917,5.6841109)" />
    <path
       sodipodi:type="arc"
       style="fill:#ffffff;fill-opacity:1;stroke:none"
       id="path3027-1"
       sodipodi:cx="9.7227182"
       sodipodi:cy="14.23736"
       sodipodi:rx="1.2374369"
       sodipodi:ry="1.502602"
       d="m 10.960155,14.23736 a 1.2374369,1.502602 0 1 1 -2.4748737,0 1.2374369,1.502602 0 1 1 2.4748737,0 z"
       transform="matrix(1.212183,0,0,0.99826834,29.110363,10.305431)" />
    <path
       sodipodi:type="arc"
       style="fill:#ffffff;fill-opacity:1;stroke:none"
       id="path3027-7"
       sodipodi:cx="9.7227182"
       sodipodi:cy="14.23736"
       sodipodi:rx="1.2374369"
       sodipodi:ry="1.502602"
       d="m 10.960155,14.23736 a 1.2374369,1.502602 0 1 1 -2.4748737,0 1.2374369,1.502602 0 1 1 2.4748737,0 z"
       transform="matrix(1.212183,0,0,0.99826834,8.6042661,18.083606)" />
    <path
       sodipodi:type="arc"
       style="fill:#ffffff;fill-opacity:1;stroke:none"
       id="path3027-4"
       sodipodi:cx="9.7227182"
       sodipodi:cy="14.23736"
       sodipodi:rx="1.2374369"
       sodipodi:ry="1.502602"
       d="m 10.960155,14.23736 a 1.2374369,1.502602 0 1 1 -2.4748737,0 1.2374369,1.502602 0 1 1 2.4748737,0 z"
       transform="matrix(1.212183,0,0,0.99826834,25.398052,26.922441)" />
    <path
       sodipodi:type="arc"
       style="fill:#ffffff;fill-opacity:1;stroke:none"
       id="path3027-0"
       sodipodi:cx="9.7227182"
       sodipodi:cy="14.23736"
       sodipodi:rx="1.2374369"
       sodipodi:ry="1.502602"
       d="m 10.960155,14.23736 a 1.2374369,1.502602 0 1 1 -2.4748737,0 1.2374369,1.502602 0 1 1 2.4748737,0 z"
       transform="matrix(1.212183,0,0,0.99826834,22.392848,17.022945)" />
    <path
       sodipodi:type="arc"
       style="fill:#ffffff;fill-opacity:1;stroke:none"
       id="path3027-9"
       sodipodi:cx="9.7227182"
       sodipodi:cy="14.23736"
       sodipodi:rx="1.2374369"
       sodipodi:ry="1.502602"
       d="m 10.960155,14.23736 a 1.2374369,1.502602 0 1 1 -2.4748737,0 1.2374369,1.502602 0 1 1 2.4748737,0 z"
       transform="matrix(1.212183,0,0,0.99826834,14.261121,25.508227)" />
    <path
       sodipodi:type="arc"
       style="fill:#ffffff;fill-opacity:1;stroke:none"
       id="path3027-48"
       sodipodi:cx="9.7227182"
       sodipodi:cy="14.23736"
       sodipodi:rx="1.2374369"
       sodipodi:ry="1.502602"
       d="m 10.960155,14.23736 a 1.2374369,1.502602 0 1 1 -2.4748737,0 1.2374369,1.502602 0 1 1 2.4748737,0 z"
       transform="matrix(1.212183,0,0,0.99826834,20.981248,9.370902)" />
    <path
       sodipodi:type="arc"
       style="fill:#ffffff;fill-opacity:1;stroke:none"
       id="path3027-8"
       sodipodi:cx="9.7227182"
       sodipodi:cy="14.23736"
       sodipodi:rx="1.2374369"
       sodipodi:ry="1.502602"
       d="m 10.960155,14.23736 a 1.2374369,1.502602 0 1 1 -2.4748737,0 1.2374369,1.502602 0 1 1 2.4748737,0 z"
       transform="matrix(1.212183,0,0,0.99826834,29.544043,19.075403)" />
    <path
       sodipodi:type="arc"
       style="fill:#ffffff;fill-opacity:1;stroke:none"
       id="path3027-2"
       sodipodi:cx="9.7227182"
       sodipodi:cy="14.23736"
       sodipodi:rx="1.2374369"
       sodipodi:ry="1.502602"
       d="m 10.960155,14.23736 a 1.2374369,1.502602 0 1 1 -2.4748737,0 1.2374369,1.502602 0 1 1 2.4748737,0 z"
       transform="matrix(1.212183,0,0,0.99826834,14.816036,14.73692)" />
    <path
       sodipodi:type="arc"
       style="fill:#ffffff;fill-opacity:1;stroke:none"
       id="path3027-45"
       sodipodi:cx="9.7227182"
       sodipodi:cy="14.23736"
       sodipodi:rx="1.2374369"
       sodipodi:ry="1.502602"
       d="m 10.960155,14.23736 a 1.2374369,1.502602 0 1 1 -2.4748737,0 1.2374369,1.502602 0 1 1 2.4748737,0 z"
       transform="matrix(1.212183,0,0,0.99826834,19.38286,29.464928)" />
    <rect
       style="fill:#ffffff;fill-opacity:1;stroke:none"
       id="rect3896"
       width="5"
       height="35.819672"
       x="-47.757092"
       y="-17.328451"
       transform="matrix(-0.70710678,-0.70710678,0.70710678,-0.70710678,0,0)" />
    <rect
       style="fill:#000000;fill-opacity:1;stroke:none"
       id="rect3898"
       width="3"
       height="60"
       x="43.623531"
       y="-37.212349"
       transform="matrix(0.70710678,0.70710678,-0.70710678,0.70710678,0,0)" />
  </g>
</svg>
