<?xml version="1.0" encoding="UTF-8" standalone="no"?>
<!-- Created with Inkscape (http://www.inkscape.org/) -->

<svg
   xmlns:dc="http://purl.org/dc/elements/1.1/"
   xmlns:cc="http://creativecommons.org/ns#"
   xmlns:rdf="http://www.w3.org/1999/02/22-rdf-syntax-ns#"
   xmlns:svg="http://www.w3.org/2000/svg"
   xmlns="http://www.w3.org/2000/svg"
   xmlns:sodipodi="http://sodipodi.sourceforge.net/DTD/sodipodi-0.dtd"
   xmlns:inkscape="http://www.inkscape.org/namespaces/inkscape"
   width="64px"
   height="64px"
   id="svg4060"
   version="1.1"
   inkscape:version="0.48.2 r9819"
   sodipodi:docname="Retention indefinite.svg">
  <defs
     id="defs4062" />
  <sodipodi:namedview
     id="base"
     pagecolor="#ffffff"
     bordercolor="#666666"
     borderopacity="1.0"
     inkscape:pageopacity="0.0"
     inkscape:pageshadow="2"
     inkscape:zoom="5.5"
     inkscape:cx="-24.727273"
     inkscape:cy="32"
     inkscape:current-layer="layer1"
     showgrid="true"
     inkscape:document-units="px"
     inkscape:grid-bbox="true"
     inkscape:window-width="1303"
     inkscape:window-height="746"
     inkscape:window-x="55"
     inkscape:window-y="-8"
     inkscape:window-maximized="1" />
  <metadata
     id="metadata4065">
    <rdf:RDF>
      <cc:Work
         rdf:about="">
        <dc:format>image/svg+xml</dc:format>
        <dc:type
           rdf:resource="http://purl.org/dc/dcmitype/StillImage" />
        <dc:title />
      </cc:Work>
    </rdf:RDF>
  </metadata>
  <g
     id="layer1"
     inkscape:label="Layer 1"
     inkscape:groupmode="layer">
    <path
       sodipodi:type="star"
       style="fill:#ffffff;fill-opacity:1;stroke:#000000;stroke-width:3.99866914000000010;stroke-miterlimit:4;stroke-opacity:1;stroke-dasharray:none;stroke-linejoin:round;stroke-linecap:round"
       id="path4588"
       sodipodi:sides="3"
       sodipodi:cx="0"
       sodipodi:cy="-0.18181819"
       sodipodi:r1="38.542881"
       sodipodi:r2="19.271441"
       sodipodi:arg1="0.52909312"
       sodipodi:arg2="1.5762907"
       inkscape:flatsided="true"
       inkscape:rounded="0"
       inkscape:randomized="0"
       d="M 33.272727,19.272727 -33.484494,18.905936 0.2117668,-38.724117 z"
       inkscape:transform-center-x="0.089614304"
       inkscape:transform-center-y="-8.6393243"
       transform="matrix(0.8463504,0,0,0.90522167,32.089615,40.80391)" />
    <g
       transform="scale(1.0653395,0.93866791)"
       style="font-size:39.91125488px;font-style:normal;font-weight:normal;line-height:125%;letter-spacing:0px;word-spacing:0px;fill:#000000;fill-opacity:1;stroke:none;font-family:Sans"
       id="text4273">
      <path
         d="m 29.199394,38.61206 c 1.364139,-1.714919 2.429478,-2.845217 3.196018,-3.390898 1.039338,-0.753513 2.137156,-1.130279 3.293458,-1.130299 1.364133,2e-5 2.640591,0.493714 3.829376,1.481082 1.188738,0.987405 1.783119,2.578917 1.783145,4.774539 -2.6e-5,1.533063 -0.220889,2.738064 -0.66259,3.615009 -0.44175,0.876966 -1.130323,1.581778 -2.065719,2.114439 -0.935442,0.532678 -1.896845,0.799012 -2.884212,0.799005 -1.156302,7e-6 -2.25412,-0.370263 -3.293458,-1.110811 -0.76654,-0.558645 -1.831879,-1.695439 -3.196018,-3.410386 -1.766916,2.221632 -3.644251,3.332443 -5.632008,3.332434 -1.312193,9e-6 -2.439243,-0.496933 -3.381154,-1.490826 -0.941919,-0.993872 -1.412877,-2.231354 -1.412874,-3.712448 -3e-6,-1.468074 0.470955,-2.702308 1.412874,-3.702704 0.941911,-1.000362 2.068961,-1.500551 3.381154,-1.50057 1.987757,1.9e-5 3.865092,1.110829 5.632008,3.332434 z m 1.344666,1.851352 c 1.130283,1.753925 2.163142,2.955678 3.098579,3.605265 0.597611,0.428744 1.266695,0.643111 2.007255,0.643101 0.987367,10e-6 1.815603,-0.363764 2.48471,-1.091323 0.669062,-0.727538 1.003604,-1.7539 1.003628,-3.079091 -2.4e-5,-1.377131 -0.341062,-2.429478 -1.023116,-3.157043 -0.682099,-0.727531 -1.529822,-1.091305 -2.543173,-1.091323 -0.636625,1.8e-5 -1.234254,0.181905 -1.792889,0.545661 -0.75355,0.506703 -1.83188,1.714953 -3.234994,3.624753 z m -2.689332,0.01949 c -1.039367,-1.299179 -1.870851,-2.133911 -2.494454,-2.504197 -0.623622,-0.370254 -1.221251,-0.555389 -1.792888,-0.555406 -0.75354,1.7e-5 -1.380401,0.266351 -1.880584,0.799004 -0.500196,0.532686 -0.75029,1.26673 -0.750285,2.202135 -5e-6,0.922441 0.259833,1.659733 0.779517,2.211879 0.519671,0.552169 1.14978,0.828247 1.890328,0.828236 1.312177,1.1e-5 2.728297,-0.993872 4.248366,-2.981651 z"
         style=""
         id="path4807" />
    </g>
  </g>
</svg>
