<?xml version="1.0" encoding="UTF-8" standalone="no"?>
<!-- Created with Inkscape (http://www.inkscape.org/) -->

<svg
   xmlns:dc="http://purl.org/dc/elements/1.1/"
   xmlns:cc="http://creativecommons.org/ns#"
   xmlns:rdf="http://www.w3.org/1999/02/22-rdf-syntax-ns#"
   xmlns:svg="http://www.w3.org/2000/svg"
   xmlns="http://www.w3.org/2000/svg"
   xmlns:sodipodi="http://sodipodi.sourceforge.net/DTD/sodipodi-0.dtd"
   xmlns:inkscape="http://www.inkscape.org/namespaces/inkscape"
   width="64px"
   height="64px"
   id="svg4060"
   version="1.1"
   inkscape:version="0.48.2 r9819"
   sodipodi:docname="Retention 18 months.svg">
  <defs
     id="defs4062" />
  <sodipodi:namedview
     id="base"
     pagecolor="#ffffff"
     bordercolor="#666666"
     borderopacity="1.0"
     inkscape:pageopacity="0.0"
     inkscape:pageshadow="2"
     inkscape:zoom="5.5"
     inkscape:cx="5.5454545"
     inkscape:cy="32"
     inkscape:current-layer="layer1"
     showgrid="true"
     inkscape:document-units="px"
     inkscape:grid-bbox="true"
     inkscape:window-width="1303"
     inkscape:window-height="746"
     inkscape:window-x="55"
     inkscape:window-y="-8"
     inkscape:window-maximized="1" />
  <metadata
     id="metadata4065">
    <rdf:RDF>
      <cc:Work
         rdf:about="">
        <dc:format>image/svg+xml</dc:format>
        <dc:type
           rdf:resource="http://purl.org/dc/dcmitype/StillImage" />
        <dc:title />
      </cc:Work>
    </rdf:RDF>
  </metadata>
  <g
     id="layer1"
     inkscape:label="Layer 1"
     inkscape:groupmode="layer">
    <rect
       style="fill:#ffffff;fill-opacity:1;stroke:#000000;stroke-width:3.50000000000000000;stroke-miterlimit:4;stroke-opacity:1;stroke-dasharray:none"
       id="rect4068"
       width="56.897232"
       height="56.897236"
       x="3.5513825"
       y="3.5513816"
       rx="4.4450965"
       ry="4.4199829" />
    <g
       transform="scale(0.98326038,1.0170246)"
       style="font-size:32.26249313000000300px;font-style:normal;font-variant:normal;font-weight:bold;font-stretch:normal;text-align:center;line-height:125%;letter-spacing:0px;word-spacing:0px;text-anchor:middle;fill:#000000;fill-opacity:1;stroke:none;font-family:Sans;-inkscape-font-specification:Sans Bold"
       id="text4596">
      <path
         d="m 17.264214,42.853874 -4.426641,0 0,-16.682607 c -1.617332,1.512319 -3.5234638,2.630793 -5.7184008,3.355425 l 0,-4.017058 c 1.1552288,-0.378059 2.4102302,-1.094827 3.7650078,-2.150308 1.354765,-1.055442 2.284201,-2.286814 2.788311,-3.694119 l 3.591723,0 z"
         style="fill:#000000;fill-opacity:1"
         id="path5114" />
      <path
         d="m 27.692813,30.393116 c -1.144735,-0.483084 -1.977026,-1.147342 -2.496878,-1.992776 -0.519856,-0.845405 -0.779783,-1.772215 -0.779782,-2.780434 -1e-6,-1.722328 0.601244,-3.145363 1.803738,-4.269109 1.202488,-1.123704 2.911705,-1.685567 5.127657,-1.68559 2.194931,2.3e-5 3.898897,0.561886 5.111904,1.68559 1.212979,1.123746 1.819476,2.546781 1.819491,4.269109 -1.5e-5,1.071231 -0.278321,2.024297 -0.834918,2.8592 -0.556626,0.834932 -1.339033,1.472934 -2.347222,1.91401 1.281244,0.514616 2.255314,1.265516 2.922213,2.252704 0.666868,0.987208 1.00031,2.126686 1.000326,3.418438 -1.6e-5,2.131933 -0.680027,3.86478 -2.040035,5.198546 -1.360037,1.333769 -3.169024,2.000652 -5.426967,2.000653 -2.10043,-1e-6 -3.84903,-0.551361 -5.245806,-1.654083 -1.648834,-1.30226 -2.473249,-3.087617 -2.473248,-5.356078 -1e-6,-1.249744 0.309811,-2.397099 0.929437,-3.442068 0.619622,-1.044949 1.596318,-1.850986 2.93009,-2.418112 z m 0.913684,-4.458147 c -6e-6,0.882194 0.249419,1.570081 0.748275,2.063665 0.498843,0.493614 1.163101,0.740414 1.992776,0.740399 0.84016,1.5e-5 1.512294,-0.24941 2.016406,-0.748275 0.50409,-0.498835 0.756141,-1.189348 0.756152,-2.071542 -1.1e-5,-0.829649 -0.249436,-1.493907 -0.748275,-1.992776 -0.498861,-0.498831 -1.157868,-0.748256 -1.977023,-0.748276 -0.850679,2e-5 -1.528065,0.25207 -2.032159,0.756152 -0.504108,0.50412 -0.756158,1.171004 -0.756152,2.000653 z m -0.409583,9.892991 c -5e-6,1.218251 0.312432,2.168692 0.937314,2.851324 0.624869,0.682641 1.40465,1.023959 2.339346,1.023956 0.913674,3e-6 1.669825,-0.328187 2.268456,-0.984573 0.598609,-0.656377 0.897919,-1.604192 0.897931,-2.843447 -1.2e-5,-1.08171 -0.304573,-1.950759 -0.913684,-2.60715 -0.609133,-0.656372 -1.381038,-0.984563 -2.315716,-0.984573 -1.081725,1e-5 -1.887762,0.372835 -2.418112,1.118475 -0.530362,0.745659 -0.79554,1.554321 -0.795535,2.425988 z"
         style="fill:#000000;fill-opacity:1"
         id="path5116" />
      <path
         d="m 47.872624,39.529955 0,-6.001958 -6.049217,0 0,-4.143084 6.049217,0 0,-6.001958 4.032812,0 0,6.001958 6.064971,0 0,4.143084 -6.064971,0 0,6.001958 z"
         style="fill:#000000;fill-opacity:1"
         id="path5118" />
    </g>
  </g>
</svg>
