<?xml version="1.0" encoding="UTF-8" standalone="no"?>
<!-- Created with Inkscape (http://www.inkscape.org/) -->

<svg
   xmlns:dc="http://purl.org/dc/elements/1.1/"
   xmlns:cc="http://creativecommons.org/ns#"
   xmlns:rdf="http://www.w3.org/1999/02/22-rdf-syntax-ns#"
   xmlns:svg="http://www.w3.org/2000/svg"
   xmlns="http://www.w3.org/2000/svg"
   xmlns:sodipodi="http://sodipodi.sourceforge.net/DTD/sodipodi-0.dtd"
   xmlns:inkscape="http://www.inkscape.org/namespaces/inkscape"
   width="64px"
   height="64px"
   id="svg4060"
   version="1.1"
   inkscape:version="0.48.2 r9819"
   sodipodi:docname="Collection financial.svg">
  <defs
     id="defs4062">
    <clipPath
       id="clip0-1">
      <rect
         y="0"
         x="0"
         width="173"
         height="479"
         id="rect7-7" />
    </clipPath>
  </defs>
  <sodipodi:namedview
     id="base"
     pagecolor="#ffffff"
     bordercolor="#666666"
     borderopacity="1.0"
     inkscape:pageopacity="0.0"
     inkscape:pageshadow="2"
     inkscape:zoom="3.8890873"
     inkscape:cx="-11.031274"
     inkscape:cy="37.924407"
     inkscape:current-layer="layer1"
     showgrid="true"
     inkscape:document-units="px"
     inkscape:grid-bbox="true"
     inkscape:window-width="1303"
     inkscape:window-height="746"
     inkscape:window-x="55"
     inkscape:window-y="-8"
     inkscape:window-maximized="1" />
  <metadata
     id="metadata4065">
    <rdf:RDF>
      <cc:Work
         rdf:about="">
        <dc:format>image/svg+xml</dc:format>
        <dc:type
           rdf:resource="http://purl.org/dc/dcmitype/StillImage" />
        <dc:title />
      </cc:Work>
    </rdf:RDF>
  </metadata>
  <g
     id="layer1"
     inkscape:label="Layer 1"
     inkscape:groupmode="layer">
    <rect
       style="fill:#ffffff;fill-opacity:1;stroke:#101f78;stroke-width:3.50000000000000000;stroke-miterlimit:4;stroke-opacity:1;stroke-dasharray:none"
       id="rect4068"
       width="56.897232"
       height="56.897236"
       x="3.5513825"
       y="3.5513816"
       rx="4.4450965"
       ry="4.4199829" />
    <g
       transform="scale(0.98558687,1.0146239)"
       style="font-size:39.78401947px;font-style:normal;font-weight:normal;line-height:125%;letter-spacing:0px;word-spacing:0px;fill:#101f78;fill-opacity:1;stroke:none;font-family:Sans"
       id="text9146">
      <path
         d="m 31.162553,56.178453 0,-4.895299 C 28.714893,50.974931 26.725046,50.426477 25.193008,49.63779 23.660955,48.849104 22.337412,47.575421 21.222377,45.816737 20.107334,44.058062 19.459161,41.909572 19.277855,39.37126 l 4.922495,-0.924668 c 0.380739,2.628967 1.051575,4.559888 2.012512,5.792771 1.377926,1.740555 3.027821,2.710549 4.949691,2.909983 l 0,-15.583368 c -2.012523,-0.380727 -4.07036,-1.160347 -6.173516,-2.338865 -1.559249,-0.870254 -2.760409,-2.075947 -3.603484,-3.617082 -0.843082,-1.541087 -1.264621,-3.290701 -1.264618,-5.248849 -3e-6,-3.481068 1.232886,-6.300395 3.69867,-8.457989 1.649889,-1.450419 4.097536,-2.3388239 7.342948,-2.665218 l 0,-2.3388651 2.882788,0 0,2.3388651 c 2.846506,0.272002 5.10378,1.106015 6.77183,2.502042 2.139401,1.776849 3.426682,4.215431 3.861847,7.315752 l -5.058476,0.761491 c -0.290114,-1.921826 -0.89296,-3.394946 -1.808541,-4.419367 -0.915622,-1.024351 -2.171174,-1.69972 -3.76666,-2.02611 l 0,14.114779 c 2.465761,0.616467 4.097525,1.096931 4.895299,1.441393 1.522958,0.670859 2.764913,1.486741 3.725866,2.44765 0.960903,0.960947 1.69973,2.103182 2.216483,3.426709 0.516698,1.323558 0.77506,2.755885 0.775089,4.296985 -2.9e-5,3.390456 -1.078806,6.218848 -3.236337,8.485185 -2.157581,2.266343 -4.949711,3.481101 -8.3764,3.644278 l 0,4.949691 z m 0,-42.861062 c -1.903739,0.290128 -3.404056,1.051619 -4.500955,2.284473 -1.096918,1.232923 -1.645372,2.692446 -1.645364,4.378573 -8e-6,1.668056 0.466858,3.064122 1.400599,4.1882 0.933723,1.124131 2.515628,2.021601 4.74572,2.692414 z m 2.882788,33.831955 c 1.903708,-0.235696 3.476548,-1.060644 4.718524,-2.474845 1.241933,-1.414191 1.86291,-3.163805 1.862933,-5.248849 -2.3e-5,-1.776799 -0.439693,-3.204593 -1.319011,-4.283386 -0.879362,-1.078763 -2.633509,-2.044224 -5.262446,-2.896386 z"
         style="font-size:55.69762421px;fill:#101f78"
         id="path2988" />
    </g>
  </g>
</svg>
