<?xml version="1.0" encoding="UTF-8" standalone="no"?>
<!-- Created with Inkscape (http://www.inkscape.org/) -->

<svg
   xmlns:dc="http://purl.org/dc/elements/1.1/"
   xmlns:cc="http://creativecommons.org/ns#"
   xmlns:rdf="http://www.w3.org/1999/02/22-rdf-syntax-ns#"
   xmlns:svg="http://www.w3.org/2000/svg"
   xmlns="http://www.w3.org/2000/svg"
   xmlns:sodipodi="http://sodipodi.sourceforge.net/DTD/sodipodi-0.dtd"
   xmlns:inkscape="http://www.inkscape.org/namespaces/inkscape"
   width="64px"
   height="64px"
   id="svg4060"
   version="1.1"
   inkscape:version="0.48.2 r9819"
   sodipodi:docname="Collection name.svg">
  <defs
     id="defs4062" />
  <sodipodi:namedview
     id="base"
     pagecolor="#ffffff"
     bordercolor="#666666"
     borderopacity="1.0"
     inkscape:pageopacity="0.0"
     inkscape:pageshadow="2"
     inkscape:zoom="3.8890873"
     inkscape:cx="57.776554"
     inkscape:cy="24.927561"
     inkscape:current-layer="layer1"
     showgrid="true"
     inkscape:document-units="px"
     inkscape:grid-bbox="true"
     inkscape:window-width="1303"
     inkscape:window-height="746"
     inkscape:window-x="55"
     inkscape:window-y="-8"
     inkscape:window-maximized="1" />
  <metadata
     id="metadata4065">
    <rdf:RDF>
      <cc:Work
         rdf:about="">
        <dc:format>image/svg+xml</dc:format>
        <dc:type
           rdf:resource="http://purl.org/dc/dcmitype/StillImage" />
        <dc:title />
      </cc:Work>
    </rdf:RDF>
  </metadata>
  <g
     id="layer1"
     inkscape:label="Layer 1"
     inkscape:groupmode="layer">
    <rect
       style="fill:#ffffff;fill-opacity:1;stroke:#101f78;stroke-width:3.50000000000000000;stroke-miterlimit:4;stroke-opacity:1;stroke-dasharray:none"
       id="rect4068"
       width="56.897232"
       height="56.897236"
       x="3.5513825"
       y="3.5513816"
       rx="4.4450965"
       ry="4.4199829" />
    <path
       inkscape:connector-curvature="0"
       style="fill:#101f78;fill-opacity:1"
       d="m 28.365648,57.506314 c -0.821656,-0.269596 -1.472391,-0.876013 -1.658264,-1.545332 -0.07407,-0.266706 -0.109355,-5.722847 -0.109751,-16.966995 l -6.76e-4,-16.573873 -0.416299,0 -0.416298,0 0,6.256323 c 0,6.133186 -0.0042,6.263767 -0.215191,6.634754 -0.273249,0.480522 -0.580107,0.705677 -1.180654,0.866298 -0.887868,0.237472 -1.858855,-0.215978 -2.207544,-1.030916 -0.224351,-0.524339 -0.209738,-14.509124 0.01607,-15.376035 0.50898,-1.954101 2.157254,-3.554998 4.079619,-3.962356 1.012647,-0.214584 10.375243,-0.21723 11.384906,-0.0034 1.028441,0.217994 1.911773,0.711079 2.693383,1.503481 0.803961,0.815056 1.17925,1.476232 1.459178,2.570737 0.195114,0.762886 0.205874,1.171447 0.205874,7.816688 0,6.074478 -0.0214,7.062942 -0.16008,7.394856 -0.215636,0.516093 -0.437533,0.748186 -0.932701,0.97557 -0.821714,0.37733 -1.866088,0.134582 -2.351975,-0.546678 l -0.24989,-0.350369 -0.02833,-6.374565 -0.02837,-6.374569 -0.41397,0 -0.413972,0 0,16.655271 c 0,18.257291 0.04131,17.045021 -0.603948,17.724886 -0.509704,0.537034 -1.029477,0.740185 -1.89384,0.740185 -0.864363,0 -1.384137,-0.203151 -1.893838,-0.740185 -0.632694,-0.666633 -0.603948,-0.149933 -0.603948,-10.855969 l 0,-9.786351 -0.416298,0 -0.416299,0 0,9.786351 c 0,7.975235 -0.02597,9.848328 -0.140338,10.12125 -0.209671,0.500345 -0.665795,0.993657 -1.144605,1.237931 -0.461482,0.235426 -1.509189,0.34485 -1.942039,0.20283 z M 30.70664,14.6414 C 29.44851,14.192037 28.670915,13.499369 28.120517,12.337723 27.815878,11.69476 27.79391,11.571247 27.79391,10.501389 c 0,-1.0825513 0.01892,-1.1854253 0.336541,-1.8306155 1.586462,-3.2225705 6.166606,-3.2304718 7.750379,-0.013371 0.327926,0.6661119 0.343121,0.7500774 0.343121,1.8960245 0,1.102086 -0.02354,1.246949 -0.290918,1.791458 -0.449183,0.914699 -1.11263,1.581662 -2.018827,2.029531 -0.703584,0.347725 -0.882245,0.391025 -1.735091,0.420488 -0.715641,0.02471 -1.07976,-0.01324 -1.472475,-0.153504 z"
       id="path2558" />
  </g>
</svg>
