<?xml version="1.0" encoding="UTF-8" standalone="no"?>
<!-- Created with Inkscape (http://www.inkscape.org/) -->

<svg
   xmlns:dc="http://purl.org/dc/elements/1.1/"
   xmlns:cc="http://creativecommons.org/ns#"
   xmlns:rdf="http://www.w3.org/1999/02/22-rdf-syntax-ns#"
   xmlns:svg="http://www.w3.org/2000/svg"
   xmlns="http://www.w3.org/2000/svg"
   xmlns:sodipodi="http://sodipodi.sourceforge.net/DTD/sodipodi-0.dtd"
   xmlns:inkscape="http://www.inkscape.org/namespaces/inkscape"
   width="64px"
   height="64px"
   id="svg4060"
   version="1.1"
   inkscape:version="0.48.2 r9819"
   sodipodi:docname="Collection email.svg">
  <defs
     id="defs4062" />
  <sodipodi:namedview
     id="base"
     pagecolor="#ffffff"
     bordercolor="#666666"
     borderopacity="1.0"
     inkscape:pageopacity="0.0"
     inkscape:pageshadow="2"
     inkscape:zoom="3.8890873"
     inkscape:cx="-11.031274"
     inkscape:cy="24.927561"
     inkscape:current-layer="layer1"
     showgrid="true"
     inkscape:document-units="px"
     inkscape:grid-bbox="true"
     inkscape:window-width="1303"
     inkscape:window-height="746"
     inkscape:window-x="55"
     inkscape:window-y="-8"
     inkscape:window-maximized="1" />
  <metadata
     id="metadata4065">
    <rdf:RDF>
      <cc:Work
         rdf:about="">
        <dc:format>image/svg+xml</dc:format>
        <dc:type
           rdf:resource="http://purl.org/dc/dcmitype/StillImage" />
        <dc:title />
      </cc:Work>
    </rdf:RDF>
  </metadata>
  <g
     id="layer1"
     inkscape:label="Layer 1"
     inkscape:groupmode="layer">
    <rect
       style="fill:#ffffff;fill-opacity:1;stroke:#101f78;stroke-width:3.50000000000000000;stroke-miterlimit:4;stroke-opacity:1;stroke-dasharray:none"
       id="rect4068"
       width="56.897232"
       height="56.897236"
       x="3.5513825"
       y="3.5513816"
       rx="4.4450965"
       ry="4.4199829" />
    <g
       style="font-size:41.08975601000000200px;font-style:normal;font-weight:normal;line-height:125%;letter-spacing:0px;word-spacing:0px;fill:#101f78;fill-opacity:1;stroke:none;font-family:Sans"
       id="text9083">
      <path
         d="m 34.066525,39.082364 c -0.869434,1.003171 -1.842506,1.809048 -2.919218,2.417635 -1.076753,0.608589 -2.156829,0.912883 -3.240232,0.912883 -1.190442,0 -2.347428,-0.347765 -3.470961,-1.043295 -1.123561,-0.695528 -2.036443,-1.765573 -2.738649,-3.210137 -0.702227,-1.444556 -1.053336,-3.02956 -1.053326,-4.755016 -10e-6,-2.126705 0.545044,-4.256762 1.635164,-6.390179 1.090096,-2.133386 2.444372,-3.735109 4.06283,-4.805174 1.618427,-1.070025 3.190055,-1.605047 4.714889,-1.605069 1.163653,2.2e-5 2.273824,0.304316 3.330517,0.912883 1.056646,0.608609 1.966183,1.534866 2.728617,2.778775 l 0.682154,-3.10982 3.591341,0 -2.889124,13.462512 c -0.401294,1.872586 -0.601928,2.909192 -0.6019,3.109821 -2.8e-5,0.361144 0.137072,0.672126 0.411298,0.932946 0.274172,0.260827 0.605217,0.391239 0.993137,0.391235 0.708876,4e-6 1.638477,-0.407951 2.788806,-1.223864 1.524783,-1.070041 2.731927,-2.504569 3.621436,-4.303591 0.88944,-1.799003 1.334177,-3.654862 1.334214,-5.567581 -3.7e-5,-2.233704 -0.571842,-4.320291 -1.715417,-6.259768 -1.143645,-1.939435 -2.849029,-3.491 -5.116157,-4.654699 -2.267186,-1.163648 -4.771759,-1.745485 -7.513727,-1.745512 -3.129903,2.7e-5 -5.988928,0.732339 -8.577085,2.196938 -2.588184,1.464648 -4.594518,3.564611 -6.019008,6.299894 -1.424504,2.73532 -2.136752,5.667911 -2.136747,8.797782 -5e-6,3.277022 0.712243,6.099265 2.136747,8.466737 1.42449,2.367475 3.484326,4.116329 6.179515,5.246568 2.695161,1.130231 5.681254,1.695348 8.958289,1.695354 3.504373,-6e-6 6.440308,-0.58853 8.807814,-1.765576 2.367442,-1.177053 4.139704,-2.608237 5.316789,-4.293558 l 3.631468,0 c -0.682194,1.404434 -1.852555,2.835619 -3.511088,4.293558 -1.658606,1.457932 -3.6315,2.611574 -5.91869,3.46093 -2.287251,0.84934 -5.042616,1.274014 -8.266103,1.274023 -2.969397,-9e-6 -5.708042,-0.381212 -8.215945,-1.143612 C 22.580241,49.093973 20.443496,47.947019 18.67793,46.415522 16.912349,44.884016 15.581481,43.121786 14.685322,41.128827 13.561771,38.600848 12.999998,35.872234 13,32.942977 c -2e-6,-3.263627 0.668776,-6.373444 2.006336,-9.329461 1.631814,-3.624758 3.949129,-6.400186 6.951953,-8.326294 3.002802,-1.926053 6.644297,-2.889093 10.924498,-2.889123 3.317117,3e-5 6.296522,0.67884 8.938226,2.036431 2.641642,1.357647 4.724885,3.3807 6.249736,6.069165 1.297392,2.313994 1.946106,4.828599 1.946145,7.543823 -3.9e-5,3.878926 -1.364346,7.323132 -4.092924,10.332629 -2.434387,2.701867 -5.096123,4.052798 -7.985217,4.052798 -0.92294,0 -1.668628,-0.140443 -2.237064,-0.42133 -0.568486,-0.280887 -0.986472,-0.682154 -1.25396,-1.203802 -0.173906,-0.334387 -0.300974,-0.909536 -0.381204,-1.725449 z M 24.35586,33.645195 c -1.3e-5,1.83246 0.434692,3.256957 1.304119,4.273495 0.869396,1.016547 1.865875,1.524818 2.98944,1.524815 0.749013,3e-6 1.538171,-0.224038 2.367476,-0.672123 0.829264,-0.448077 1.621766,-1.113511 2.377508,-1.996304 0.755696,-0.882781 1.374316,-2.002984 1.85586,-3.360612 0.481496,-1.35761 0.722256,-2.718573 0.722281,-4.082893 -2.5e-5,-1.819063 -0.45145,-3.230185 -1.354276,-4.233369 -0.902874,-1.003149 -2.003014,-1.504733 -3.300423,-1.504752 -0.856056,1.9e-5 -1.661933,0.217372 -2.417634,0.65206 -0.755737,0.434723 -1.488049,1.133596 -2.196938,2.09662 -0.70892,0.963057 -1.277382,2.133418 -1.705385,3.511088 -0.428032,1.377695 -0.642041,2.641685 -0.642028,3.791975 z"
         style="fill:#101f78;fill-opacity:1"
         id="path9088" />
    </g>
  </g>
</svg>
