<?xml version="1.0" encoding="UTF-8" standalone="no"?>
<!-- Created with Inkscape (http://www.inkscape.org/) -->

<svg
   xmlns:dc="http://purl.org/dc/elements/1.1/"
   xmlns:cc="http://creativecommons.org/ns#"
   xmlns:rdf="http://www.w3.org/1999/02/22-rdf-syntax-ns#"
   xmlns:svg="http://www.w3.org/2000/svg"
   xmlns="http://www.w3.org/2000/svg"
   xmlns:sodipodi="http://sodipodi.sourceforge.net/DTD/sodipodi-0.dtd"
   xmlns:inkscape="http://www.inkscape.org/namespaces/inkscape"
   width="64px"
   height="64px"
   id="svg4060"
   version="1.1"
   inkscape:version="0.48.2 r9819"
   sodipodi:docname="Square.svg">
  <defs
     id="defs4062" />
  <sodipodi:namedview
     id="base"
     pagecolor="#ffffff"
     bordercolor="#666666"
     borderopacity="1.0"
     inkscape:pageopacity="0.0"
     inkscape:pageshadow="2"
     inkscape:zoom="1"
     inkscape:cx="33.909091"
     inkscape:cy="32"
     inkscape:current-layer="layer1"
     showgrid="true"
     inkscape:document-units="px"
     inkscape:grid-bbox="true"
     inkscape:window-width="1303"
     inkscape:window-height="746"
     inkscape:window-x="55"
     inkscape:window-y="-8"
     inkscape:window-maximized="1" />
  <metadata
     id="metadata4065">
    <rdf:RDF>
      <cc:Work
         rdf:about="">
        <dc:format>image/svg+xml</dc:format>
        <dc:type
           rdf:resource="http://purl.org/dc/dcmitype/StillImage" />
        <dc:title></dc:title>
      </cc:Work>
    </rdf:RDF>
  </metadata>
  <g
     id="layer1"
     inkscape:label="Layer 1"
     inkscape:groupmode="layer">
    <rect
       style="fill:#ffffff;fill-opacity:1;stroke:#101f78;stroke-width:3.50000000000000000;stroke-miterlimit:4;stroke-opacity:1;stroke-dasharray:none"
       id="rect4068"
       width="56.897232"
       height="56.897236"
       x="3.5513825"
       y="3.5513816"
       rx="4.4450965"
       ry="4.4199829" />
    <path
       sodipodi:type="star"
       style="fill:#101f78;fill-opacity:1;stroke:#101f78;stroke-width:3;stroke-linecap:round;stroke-linejoin:miter;stroke-miterlimit:4;stroke-opacity:1;stroke-dasharray:none"
       id="path3025"
       sodipodi:sides="28"
       sodipodi:cx="20.152542"
       sodipodi:cy="22.103924"
       sodipodi:r1="50.67852"
       sodipodi:r2="50.359867"
       sodipodi:arg1="0.86935873"
       sodipodi:arg2="0.98155847"
       inkscape:flatsided="true"
       inkscape:rounded="-10"
       inkscape:randomized="0"
       d="M 52.85623,60.818019 C 139.5483,-12.415007 -57.392815,119.23075 43.421584,67.124631 144.23598,15.01851 -77.061344,99.540115 32.82013,71.173717 142.7016,42.807319 -91.855162,75.966503 21.583471,72.762239 135.0221,69.557974 -101.03245,49.691997 10.275059,71.810541 121.58257,93.929084 -104.13301,22.03411 -0.53805424,68.366345 103.0569,114.69858 -101.00138,-5.6202771 -10.313655,62.602359 80.374066,130.82499 -91.79458,-31.884457 -18.561553,54.807612 54.671473,141.49968 -76.974287,-55.441433 -24.868165,45.372965 27.237956,146.18736 -57.283649,-75.109962 -28.917251,34.771512 -0.5508534,144.65299 -33.710037,-89.90378 -30.505773,23.534853 -27.301508,136.97349 -7.4355311,-99.081065 -29.554075,12.226441 -51.672618,123.53395 20.222356,-102.18163 -26.109879,1.4133274 -72.442115,105.00828 47.876743,-99.049995 -20.345893,-8.3622733 -88.568529,82.325448 74.140923,-89.843198 -12.551146,-16.610172 -99.243215,56.622854 97.697899,-75.022905 -3.1164996,-22.916784 -103.9309,29.189337 117.36643,-55.332267 7.4849538,-26.96587 -102.39652,1.4005283 132.16025,-31.758656 18.721613,-28.554391 c -113.438633,3.204265 122.615917,23.0702416 11.308412,0.951698 -111.307506,-22.118543 114.408065,49.776431 10.813113,3.444195 -103.594955,-46.332235 100.463322,73.986623 9.775601,5.763987 -90.687721,-68.222636 81.480921,94.486815 8.247899,7.794747 C -14.366388,-97.291833 117.27937,99.649281 65.17325,-1.1651179 13.067128,-101.97952 97.588733,119.31781 69.222335,9.4363355 40.855938,-100.44514 74.015122,134.11163 70.810857,20.672995 67.606592,-92.765639 47.740615,143.28891 69.859159,31.981406 91.977702,-79.3261 20.082728,146.38948 66.414964,42.79452 112.7472,-60.800435 -7.5716588,143.25784 60.650977,52.570121 128.87361,-38.1176 -33.835838,134.05105 52.85623,60.818019 z"
       transform="matrix(0.37164947,0,0,0.37164947,24.510318,23.785089)" />
    <path
       sodipodi:type="arc"
       style="fill:#ffffff;fill-opacity:1;stroke:none"
       id="path3027"
       sodipodi:cx="9.7227182"
       sodipodi:cy="14.23736"
       sodipodi:rx="1.2374369"
       sodipodi:ry="1.502602"
       d="m 10.960155,14.23736 a 1.2374369,1.502602 0 1 1 -2.4748737,0 1.2374369,1.502602 0 1 1 2.4748737,0 z"
       transform="matrix(1.5687075,0,0,1.2918768,8.3900101,-2.0558559)" />
    <path
       sodipodi:type="arc"
       style="fill:#ffffff;fill-opacity:1;stroke:none"
       id="path3027-1"
       sodipodi:cx="9.7227182"
       sodipodi:cy="14.23736"
       sodipodi:rx="1.2374369"
       sodipodi:ry="1.502602"
       d="m 10.960155,14.23736 a 1.2374369,1.502602 0 1 1 -2.4748737,0 1.2374369,1.502602 0 1 1 2.4748737,0 z"
       transform="matrix(1.5687075,0,0,1.2918768,28.260469,3.9246756)" />
    <path
       sodipodi:type="arc"
       style="fill:#ffffff;fill-opacity:1;stroke:none"
       id="path3027-7"
       sodipodi:cx="9.7227182"
       sodipodi:cy="14.23736"
       sodipodi:rx="1.2374369"
       sodipodi:ry="1.502602"
       d="m 10.960155,14.23736 a 1.2374369,1.502602 0 1 1 -2.4748737,0 1.2374369,1.502602 0 1 1 2.4748737,0 z"
       transform="matrix(1.5687075,0,0,1.2918768,1.7231671,13.990549)" />
    <path
       sodipodi:type="arc"
       style="fill:#ffffff;fill-opacity:1;stroke:none"
       id="path3027-4"
       sodipodi:cx="9.7227182"
       sodipodi:cy="14.23736"
       sodipodi:rx="1.2374369"
       sodipodi:ry="1.502602"
       d="m 10.960155,14.23736 a 1.2374369,1.502602 0 1 1 -2.4748737,0 1.2374369,1.502602 0 1 1 2.4748737,0 z"
       transform="matrix(1.5687075,0,0,1.2918768,23.456302,25.429042)" />
    <path
       sodipodi:type="arc"
       style="fill:#ffffff;fill-opacity:1;stroke:none"
       id="path3027-0"
       sodipodi:cx="9.7227182"
       sodipodi:cy="14.23736"
       sodipodi:rx="1.2374369"
       sodipodi:ry="1.502602"
       d="m 10.960155,14.23736 a 1.2374369,1.502602 0 1 1 -2.4748737,0 1.2374369,1.502602 0 1 1 2.4748737,0 z"
       transform="matrix(1.5687075,0,0,1.2918768,19.567214,12.61793)" />
    <path
       sodipodi:type="arc"
       style="fill:#ffffff;fill-opacity:1;stroke:none"
       id="path3027-9"
       sodipodi:cx="9.7227182"
       sodipodi:cy="14.23736"
       sodipodi:rx="1.2374369"
       sodipodi:ry="1.502602"
       d="m 10.960155,14.23736 a 1.2374369,1.502602 0 1 1 -2.4748737,0 1.2374369,1.502602 0 1 1 2.4748737,0 z"
       transform="matrix(1.5687075,0,0,1.2918768,9.0438031,23.598883)" />
    <path
       sodipodi:type="arc"
       style="fill:#ffffff;fill-opacity:1;stroke:none"
       id="path3027-48"
       sodipodi:cx="9.7227182"
       sodipodi:cy="14.23736"
       sodipodi:rx="1.2374369"
       sodipodi:ry="1.502602"
       d="m 10.960155,14.23736 a 1.2374369,1.502602 0 1 1 -2.4748737,0 1.2374369,1.502602 0 1 1 2.4748737,0 z"
       transform="matrix(1.5687075,0,0,1.2918768,17.740438,2.7152852)" />
    <path
       sodipodi:type="arc"
       style="fill:#ffffff;fill-opacity:1;stroke:none"
       id="path3027-8"
       sodipodi:cx="9.7227182"
       sodipodi:cy="14.23736"
       sodipodi:rx="1.2374369"
       sodipodi:ry="1.502602"
       d="m 10.960155,14.23736 a 1.2374369,1.502602 0 1 1 -2.4748737,0 1.2374369,1.502602 0 1 1 2.4748737,0 z"
       transform="matrix(1.5687075,0,0,1.2918768,28.821702,15.274052)" />
    <path
       sodipodi:type="arc"
       style="fill:#ffffff;fill-opacity:1;stroke:none"
       id="path3027-2"
       sodipodi:cx="9.7227182"
       sodipodi:cy="14.23736"
       sodipodi:rx="1.2374369"
       sodipodi:ry="1.502602"
       d="m 10.960155,14.23736 a 1.2374369,1.502602 0 1 1 -2.4748737,0 1.2374369,1.502602 0 1 1 2.4748737,0 z"
       transform="matrix(1.5687075,0,0,1.2918768,9.7619291,9.6595439)" />
    <path
       sodipodi:type="arc"
       style="fill:#ffffff;fill-opacity:1;stroke:none"
       id="path3027-45"
       sodipodi:cx="9.7227182"
       sodipodi:cy="14.23736"
       sodipodi:rx="1.2374369"
       sodipodi:ry="1.502602"
       d="m 10.960155,14.23736 a 1.2374369,1.502602 0 1 1 -2.4748737,0 1.2374369,1.502602 0 1 1 2.4748737,0 z"
       transform="matrix(1.5687075,0,0,1.2918768,15.671936,28.719319)" />
  </g>
</svg>
