<?xml version="1.0" encoding="UTF-8" standalone="no"?>
<!-- Created with Inkscape (http://www.inkscape.org/) -->

<svg
   xmlns:dc="http://purl.org/dc/elements/1.1/"
   xmlns:cc="http://creativecommons.org/ns#"
   xmlns:rdf="http://www.w3.org/1999/02/22-rdf-syntax-ns#"
   xmlns:svg="http://www.w3.org/2000/svg"
   xmlns="http://www.w3.org/2000/svg"
   xmlns:sodipodi="http://sodipodi.sourceforge.net/DTD/sodipodi-0.dtd"
   xmlns:inkscape="http://www.inkscape.org/namespaces/inkscape"
   width="64px"
   height="64px"
   id="svg4060"
   version="1.1"
   inkscape:version="0.48.2 r9819"
   sodipodi:docname="Retention 3 months.svg">
  <defs
     id="defs4062" />
  <sodipodi:namedview
     id="base"
     pagecolor="#ffffff"
     bordercolor="#666666"
     borderopacity="1.0"
     inkscape:pageopacity="0.0"
     inkscape:pageshadow="2"
     inkscape:zoom="5.5"
     inkscape:cx="-24.727273"
     inkscape:cy="32"
     inkscape:current-layer="layer1"
     showgrid="true"
     inkscape:document-units="px"
     inkscape:grid-bbox="true"
     inkscape:window-width="1303"
     inkscape:window-height="746"
     inkscape:window-x="55"
     inkscape:window-y="-8"
     inkscape:window-maximized="1" />
  <metadata
     id="metadata4065">
    <rdf:RDF>
      <cc:Work
         rdf:about="">
        <dc:format>image/svg+xml</dc:format>
        <dc:type
           rdf:resource="http://purl.org/dc/dcmitype/StillImage" />
        <dc:title />
      </cc:Work>
    </rdf:RDF>
  </metadata>
  <g
     id="layer1"
     inkscape:label="Layer 1"
     inkscape:groupmode="layer">
    <rect
       style="fill:#ffffff;fill-opacity:1;stroke:#101f78;stroke-width:3.50000000000000000;stroke-miterlimit:4;stroke-opacity:1;stroke-dasharray:none"
       id="rect4068"
       width="56.897232"
       height="56.897236"
       x="3.5513825"
       y="3.5513816"
       rx="4.4450965"
       ry="4.4199829" />
    <g
       transform="matrix(1.0011822,0,0,0.99881919,-1.9999995,0)"
       style="font-size:39.37849808px;font-style:normal;font-variant:normal;font-weight:bold;font-stretch:normal;line-height:125%;letter-spacing:0px;word-spacing:0px;fill:#101f78;fill-opacity:1;stroke:none;font-family:Sans;-inkscape-font-specification:Sans Bold"
       id="text4596">
      <path
         d="m 17.978745,42.328538 8.367931,-1.015227 c 0.266614,2.133013 0.984451,3.763528 2.153511,4.891548 1.169036,1.128037 2.584199,1.692051 4.245495,1.692045 1.784319,6e-6 3.286648,-0.676811 4.506992,-2.030454 1.2203,-1.353626 1.830461,-3.178981 1.830485,-5.476072 -2.4e-5,-2.174005 -0.584548,-3.896813 -1.753574,-5.168428 -1.16907,-1.271577 -2.594488,-1.907375 -4.276259,-1.907396 -1.107536,2.1e-5 -2.430406,0.215372 -3.968614,0.646054 l 0.953698,-7.04506 c 2.338082,0.06156 4.122418,-0.446056 5.353015,-1.52284 1.230557,-1.076726 1.845845,-2.507271 1.845867,-4.291641 -2.2e-5,-1.517678 -0.451234,-2.727745 -1.353636,-3.630205 -0.902444,-0.902386 -2.102256,-1.353598 -3.599441,-1.353636 -1.476709,3.8e-5 -2.73805,0.512778 -3.784028,1.538222 -1.046003,1.025518 -1.681801,2.52272 -1.907396,4.49161 l -7.967992,-1.353636 c 0.553756,-2.727745 1.389523,-4.906891 2.507302,-6.537445 1.117769,-1.630475 2.676499,-2.912326 4.676197,-3.845557 1.999677,-0.9331434 4.240352,-1.3997371 6.722033,-1.3997824 4.245473,4.53e-5 7.650069,1.3536794 10.213797,4.0609074 2.112463,2.21508 3.168709,4.717253 3.168739,7.506526 -3e-5,3.958389 -2.163795,7.11687 -6.491299,9.475451 2.584187,0.553784 4.650531,1.794616 6.199037,3.722499 1.548445,1.927924 2.322683,4.255765 2.322716,6.98353 -3.3e-5,3.958369 -1.44596,7.332201 -4.337788,10.121505 -2.891884,2.789311 -6.491321,4.183964 -10.798322,4.183965 -4.081431,-1e-6 -7.465517,-1.174176 -10.152269,-3.52253 -2.686767,-2.348348 -4.245497,-5.419662 -4.676197,-9.213953 z"
         style="font-size:63.00559616px;fill:#101f78"
         id="path6165"
         inkscape:connector-curvature="0" />
    </g>
  </g>
</svg>
