<?xml version="1.0" encoding="UTF-8" standalone="no"?>
<!-- Created with Inkscape (http://www.inkscape.org/) -->

<svg
   xmlns:dc="http://purl.org/dc/elements/1.1/"
   xmlns:cc="http://creativecommons.org/ns#"
   xmlns:rdf="http://www.w3.org/1999/02/22-rdf-syntax-ns#"
   xmlns:svg="http://www.w3.org/2000/svg"
   xmlns="http://www.w3.org/2000/svg"
   xmlns:sodipodi="http://sodipodi.sourceforge.net/DTD/sodipodi-0.dtd"
   xmlns:inkscape="http://www.inkscape.org/namespaces/inkscape"
   width="64px"
   height="64px"
   id="svg4060"
   version="1.1"
   inkscape:version="0.48.2 r9819"
   sodipodi:docname="Sharing sold.svg">
  <defs
     id="defs4062" />
  <sodipodi:namedview
     id="base"
     pagecolor="#ffffff"
     bordercolor="#666666"
     borderopacity="1.0"
     inkscape:pageopacity="0.0"
     inkscape:pageshadow="2"
     inkscape:zoom="9.9464285"
     inkscape:cx="16.315979"
     inkscape:cy="32"
     inkscape:current-layer="layer1"
     showgrid="true"
     inkscape:document-units="px"
     inkscape:grid-bbox="true"
     inkscape:window-width="1303"
     inkscape:window-height="746"
     inkscape:window-x="55"
     inkscape:window-y="-8"
     inkscape:window-maximized="1" />
  <metadata
     id="metadata4065">
    <rdf:RDF>
      <cc:Work
         rdf:about="">
        <dc:format>image/svg+xml</dc:format>
        <dc:type
           rdf:resource="http://purl.org/dc/dcmitype/StillImage" />
        <dc:title />
      </cc:Work>
    </rdf:RDF>
  </metadata>
  <g
     id="layer1"
     inkscape:label="Layer 1"
     inkscape:groupmode="layer">
    <path
       sodipodi:type="star"
       style="fill:#ffffff;fill-opacity:1;stroke:#a40802;stroke-width:3.99866914000000010;stroke-miterlimit:4;stroke-opacity:1;stroke-dasharray:none;stroke-linejoin:round;stroke-linecap:round"
       id="path4588"
       sodipodi:sides="3"
       sodipodi:cx="0"
       sodipodi:cy="-0.18181819"
       sodipodi:r1="38.542881"
       sodipodi:r2="19.271441"
       sodipodi:arg1="0.52909312"
       sodipodi:arg2="1.5762907"
       inkscape:flatsided="true"
       inkscape:rounded="0"
       inkscape:randomized="0"
       d="M 33.272727,19.272727 -33.484494,18.905936 0.2117668,-38.724117 z"
       inkscape:transform-center-x="0.089614304"
       inkscape:transform-center-y="-8.6393243"
       transform="matrix(0.8463504,0,0,0.90522167,32.089615,40.80391)" />
    <rect
       style="fill:#a40802;fill-opacity:1;stroke:none"
       id="rect4998"
       width="9.4036446"
       height="10.86283"
       x="27.687899"
       y="19.002319" />
    <rect
       style="fill:#ffffff;fill-opacity:1;stroke:none"
       id="rect5000"
       width="3.972229"
       height="3.972229"
       x="27.363636"
       y="18.272728" />
    <path
       style="fill:#a40802;fill-opacity:1;stroke:none"
       inkscape:transform-center-x="0.3465193"
       inkscape:transform-center-y="-0.37133476"
       d="m 27.789519,21.780957 3.191555,-2.747521 -0.04056,2.778678 z"
       id="path5002"
       inkscape:connector-curvature="0"
       sodipodi:nodetypes="cccc" />
    <g
       id="g3833"
       style="fill:#a40802;fill-opacity:1;stroke:none"
       transform="matrix(0,0.49139933,-0.58466223,0,51.713454,17.965381)">
      <rect
         y="30.181818"
         x="26.363636"
         height="5.090909"
         width="13.818182"
         id="rect3829"
         style="fill:#a40802;fill-opacity:1;stroke:none" />
      <path
         transform="translate(-4.1818182,15.272727)"
         inkscape:transform-center-y="0.12266954"
         inkscape:transform-center-x="-2.2727273"
         d="M 38.545453,25.636362 38.120514,9.1544289 52.606756,17.027387 z"
         inkscape:randomized="0"
         inkscape:rounded="0"
         inkscape:flatsided="true"
         sodipodi:arg2="3.1158162"
         sodipodi:arg1="2.0686187"
         sodipodi:r2="4.7595053"
         sodipodi:r1="9.5190105"
         sodipodi:cy="17.272726"
         sodipodi:cx="43.090908"
         sodipodi:sides="3"
         id="path3831"
         style="fill:#a40802;fill-opacity:1;stroke:none"
         sodipodi:type="star" />
    </g>
    <g
       style="font-size:40px;font-style:normal;font-weight:normal;line-height:125%;letter-spacing:0px;word-spacing:0px;fill:#a40802;fill-opacity:1;stroke:none;font-family:Sans"
       id="text5055"
       transform="matrix(0.50515465,0,0,0.36659795,13.753221,35.455567)">
      <path
         d="m 37.085937,53.871094 0,-3.515625 c -1.75782,-0.221355 -3.186855,-0.615235 -4.287109,-1.181641 -1.100265,-0.566405 -2.050785,-1.481118 -2.851562,-2.744141 -0.800784,-1.263016 -1.266278,-2.805983 -1.396485,-4.628906 l 3.535156,-0.664062 c 0.273433,1.888027 0.755203,3.274745 1.445313,4.160156 0.989576,1.250003 2.174471,1.946617 3.554687,2.089844 l 0,-11.191407 c -1.445321,-0.273423 -2.923184,-0.833318 -4.433593,-1.679687 -1.119796,-0.624984 -1.982426,-1.490869 -2.587891,-2.597656 -0.605471,-1.106752 -0.908205,-2.363261 -0.908203,-3.769532 -2e-6,-2.499975 0.885414,-4.524713 2.65625,-6.074218 1.18489,-1.041638 2.942701,-1.679658 5.273437,-1.914063 l 0,-1.679687 2.070313,0 0,1.679687 c 2.044257,0.195342 3.665349,0.7943 4.863281,1.796875 1.53644,1.276068 2.460918,3.027369 2.773438,5.253906 l -3.632813,0.546875 C 42.951807,26.377628 42.518865,25.319686 41.861328,24.583984 41.203762,23.848333 40.30207,23.363308 39.15625,23.128906 l 0,10.136719 c 1.77082,0.442724 2.942693,0.787776 3.515625,1.035156 1.093733,0.481786 1.98566,1.067723 2.675781,1.757813 0.690086,0.690117 1.220684,1.510429 1.591797,2.460937 0.371074,0.950531 0.55662,1.979176 0.556641,3.085938 -2.1e-5,2.434901 -0.774759,4.466149 -2.324219,6.09375 -1.549496,1.627604 -3.554702,2.499999 -6.015625,2.617187 l 0,3.554688 z m 0,-30.78125 c -1.367196,0.20836 -2.444668,0.755234 -3.232421,1.640625 -0.787767,0.885441 -1.181647,1.933617 -1.181641,3.144531 -6e-6,1.197937 0.335281,2.200541 1.005859,3.007812 0.670566,0.80731 1.806633,1.451841 3.408203,1.933594 z m 2.070313,24.296875 c 1.367174,-0.169269 2.49673,-0.761716 3.388672,-1.777344 0.891911,-1.01562 1.337874,-2.272129 1.33789,-3.769531 -1.6e-5,-1.276033 -0.315771,-2.301422 -0.947265,-3.076172 -0.631526,-0.774728 -1.89129,-1.468087 -3.779297,-2.080078 z"
         style="fill:#a40802;fill-opacity:1"
         id="path5060"
         inkscape:connector-curvature="0" />
    </g>
  </g>
</svg>
